<svg width="790" height="435" viewBox="0 0 790 435" fill="none" xmlns="http://www.w3.org/2000/svg">
<rect width="790" height="435" fill="#F5F4F0"/>
<circle cx="126" cy="202" r="100" stroke="black" stroke-width="3" stroke-linejoin="bevel"/>
<path d="M82.9056 189.65V199H79.7436V186.862H88.8046V189.65H82.9056ZM94.0804 196.144H97.0724C96.6814 198.065 95.2704 199.221 92.7374 199.221C89.9324 199.221 88.0964 197.487 88.0964 194.58C88.0964 191.69 89.8984 189.939 92.6694 189.939C95.4744 189.939 97.1404 191.639 97.1404 194.291V194.971H91.0204C91.1394 196.178 91.6834 196.807 92.7884 196.807C93.5194 196.807 93.8934 196.603 94.0804 196.144ZM92.6694 192.047C91.8024 192.047 91.3604 192.455 91.1394 193.203H94.1144C93.9614 192.438 93.4684 192.047 92.6694 192.047ZM107.889 199H104.931V195.668H101.973V199H99.0148V190.16H101.973V193.254H104.931V190.16H107.889V199ZM115.745 196.144H118.737C118.346 198.065 116.935 199.221 114.402 199.221C111.597 199.221 109.761 197.487 109.761 194.58C109.761 191.69 111.563 189.939 114.334 189.939C117.139 189.939 118.805 191.639 118.805 194.291V194.971H112.685C112.804 196.178 113.348 196.807 114.453 196.807C115.184 196.807 115.558 196.603 115.745 196.144ZM114.334 192.047C113.467 192.047 113.025 192.455 112.804 193.203H115.779C115.626 192.438 115.133 192.047 114.334 192.047ZM126.324 199.221C125.219 199.221 124.573 198.847 124.114 198.252H123.638V202.4H120.68V190.16H123.536V190.908H124.012C124.488 190.313 125.168 189.939 126.324 189.939C128.636 189.939 129.996 191.877 129.996 194.58C129.996 197.283 128.585 199.221 126.324 199.221ZM125.304 192.353C124.063 192.353 123.519 193.39 123.519 194.58C123.519 195.77 124.063 196.807 125.304 196.807C126.545 196.807 127.038 195.77 127.038 194.58C127.038 193.39 126.545 192.353 125.304 192.353ZM135.677 189.939C138.176 189.939 139.893 190.823 139.893 193.424V199H137.19V198.32H136.714C136.187 198.915 135.524 199.221 134.385 199.221C132.43 199.221 131.291 197.81 131.291 196.246C131.291 194.869 132.328 193.305 135.014 193.305H137.054V193.152C137.054 192.319 136.595 192.03 135.847 192.03C135.099 192.03 134.742 192.319 134.674 192.795H131.75C131.801 191.078 133.416 189.939 135.677 189.939ZM137.054 195.515V194.988H135.626C134.81 194.988 134.249 195.345 134.249 196.008C134.249 196.688 134.708 197.045 135.507 197.045C136.476 197.045 137.054 196.382 137.054 195.515ZM141.466 192.574V190.16H150.034V192.574H147.229V199H144.271V192.574H141.466ZM155.975 189.939C158.814 189.939 160.684 191.724 160.684 194.58C160.684 197.436 158.814 199.221 155.975 199.221C153.153 199.221 151.249 197.436 151.249 194.58C151.249 191.724 153.153 189.939 155.975 189.939ZM155.975 196.807C157.199 196.807 157.726 195.821 157.726 194.58C157.726 193.356 157.199 192.353 155.975 192.353C154.734 192.353 154.207 193.356 154.207 194.58C154.207 195.821 154.734 196.807 155.975 196.807ZM168.193 199.221C167.088 199.221 166.442 198.847 165.983 198.252H165.507V202.4H162.549V190.16H165.405V190.908H165.881C166.357 190.313 167.037 189.939 168.193 189.939C170.505 189.939 171.865 191.877 171.865 194.58C171.865 197.283 170.454 199.221 168.193 199.221ZM167.173 192.353C165.932 192.353 165.388 193.39 165.388 194.58C165.388 195.77 165.932 196.807 167.173 196.807C168.414 196.807 168.907 195.77 168.907 194.58C168.907 193.39 168.414 192.353 167.173 192.353ZM66.9078 218H64.4088V209.16H67.2818V213.172H67.6898L70.8518 209.16H73.3508V218H70.4778V213.988H70.0698L66.9078 218ZM74.8649 218V215.161H75.1879C76.2589 215.161 76.7349 214.685 76.7349 213.053V209.16H84.7419V218H81.7839V211.574H79.4379V213.172C79.4379 216.742 78.0439 218 75.1879 218H74.8649ZM89.5856 218H87.0866V209.16H89.9596V213.172H90.3676L93.5296 209.16H96.0286V218H93.1556V213.988H92.7476L89.5856 218ZM105.606 218H103.107V209.16H105.98V213.172H106.388L109.55 209.16H112.049V218H109.176V213.988H108.768L105.606 218ZM119.802 214.838H122.709C122.522 216.844 120.805 218.221 118.493 218.221C115.756 218.221 113.92 216.487 113.92 213.58C113.92 210.707 115.756 208.939 118.493 208.939C120.788 208.939 122.437 210.214 122.624 212.152H119.717C119.564 211.625 119.156 211.353 118.51 211.353C117.303 211.353 116.878 212.373 116.878 213.58C116.878 214.804 117.32 215.807 118.51 215.807C119.241 215.807 119.717 215.45 119.802 214.838ZM123.943 211.574V209.16H132.511V211.574H129.706V218H126.748V211.574H123.943ZM138.452 208.939C141.291 208.939 143.161 210.724 143.161 213.58C143.161 216.436 141.291 218.221 138.452 218.221C135.63 218.221 133.726 216.436 133.726 213.58C133.726 210.724 135.63 208.939 138.452 208.939ZM138.452 215.807C139.676 215.807 140.203 214.821 140.203 213.58C140.203 212.356 139.676 211.353 138.452 211.353C137.211 211.353 136.684 212.356 136.684 213.58C136.684 214.821 137.211 215.807 138.452 215.807ZM144.55 209.16H147.508V211.778C147.508 212.322 147.661 212.866 148.851 212.866C149.378 212.866 149.786 212.798 150.194 212.713V209.16H153.152V218H150.194V215.059C149.463 215.195 148.511 215.28 147.78 215.28C144.924 215.28 144.55 213.852 144.55 212.475V209.16ZM164.376 218H161.418V214.668H158.46V218H155.502V209.16H158.46V212.254H161.418V209.16H164.376V218ZM169.223 218H166.724V209.16H169.597V213.172H170.005L173.167 209.16H175.666V218H172.793V213.988H172.385L169.223 218ZM184.167 218L182.484 214.651H180.971V218H178.013V209.16H180.971V212.237H182.518L184.099 209.16H187.091L184.915 213.427L187.227 218H184.167Z" fill="black"/>
<circle cx="528" cy="133" r="50" stroke="black" stroke-width="3" stroke-linejoin="bevel"/>
<path d="M513.967 126.862H524.66V139H521.498V129.65H517.129V139H513.967V126.862ZM532.229 135.396H526.738V132.863H532.229V135.396ZM539.472 136.382H541.835V139H533.828V136.382H536.446V130.075H535.97L533.828 131.554V128.596L535.953 127.1H539.472V136.382Z" fill="black"/>
<circle cx="608.5" cy="215.5" r="37.5" stroke="black" stroke-width="3" stroke-linejoin="bevel"/>
<path d="M594.345 209.862H605.038V222H601.876V212.65H597.507V222H594.345V209.862ZM612.606 218.396H607.115V215.863H612.606V218.396ZM623.335 219.382V222H614.189V218.906L618.031 216.288C619.051 215.591 620.003 214.894 620.003 213.857C620.003 212.956 619.459 212.48 618.66 212.48C617.861 212.48 617.266 212.905 617.198 213.874H614.172C614.291 211.307 615.923 209.862 618.762 209.862C621.295 209.862 623.046 211.29 623.046 213.823C623.046 216.22 620.666 217.767 618.898 218.906V219.382H623.335Z" fill="black"/>
<circle cx="507.5" cy="360.5" r="37.5" stroke="black" stroke-width="3" stroke-linejoin="bevel"/>
<path d="M493.32 354.862H504.013V367H500.851V357.65H496.482V367H493.32V354.862ZM511.581 363.396H506.09V360.863H511.581V363.396ZM513.538 355.1H521.613V358.092L519.709 359.299V359.775C521.086 360.013 522.31 361.067 522.31 363.073C522.31 365.589 520.355 367.221 517.55 367.221C514.694 367.221 512.858 365.487 512.807 363.209H515.85C515.986 364.11 516.615 364.62 517.567 364.62C518.655 364.62 519.267 363.94 519.267 363.073C519.267 362.121 518.689 361.441 517.55 361.441C517.057 361.441 516.751 361.492 516.428 361.577V359.299L518.332 358.092V357.616H513.538V355.1Z" fill="black"/>
<path d="M286.404 24.148V25.588H282.192V37H280.572V25.588H276.324V24.148H286.404ZM290.378 24.148H295.814C298.622 24.148 300.17 25.588 300.17 27.982C300.17 30.412 298.622 31.852 295.814 31.852H291.998V37H290.378V24.148ZM291.998 30.412H295.544C297.74 30.412 298.532 29.494 298.532 28C298.532 26.506 297.74 25.588 295.544 25.588H291.998V30.412ZM312.339 37L311.007 33.058H305.373L304.041 37H302.385L306.831 24.148H309.567L314.031 37H312.339ZM307.821 25.804L305.859 31.582H310.503L308.541 25.804H307.821ZM318.021 37V24.148H319.641V29.638H323.529L326.103 24.148H327.813L324.933 30.394L327.975 37H326.265L323.529 31.114H319.641V37H318.021ZM340.968 24.148V25.588H336.756V37H335.136V25.588H330.888V24.148H340.968Z" fill="black"/>
<path d="M218.638 360.148H228.934V373H227.314V361.624H220.258V373H218.638V360.148ZM239.554 359.914C243.46 359.914 245.548 362.884 245.548 366.574C245.548 370.264 243.46 373.234 239.554 373.234C235.63 373.234 233.56 370.264 233.56 366.574C233.56 362.884 235.63 359.914 239.554 359.914ZM239.554 371.758C242.614 371.758 243.91 369.256 243.91 366.574C243.91 363.892 242.614 361.39 239.554 361.39C236.494 361.39 235.198 363.892 235.198 366.574C235.198 369.256 236.494 371.758 239.554 371.758ZM258.668 360.148V361.588H254.456V373H252.836V361.588H248.588V360.148H258.668ZM264.262 371.524H271.876V373H262.642V360.148H271.588V361.624H264.262V365.602H270.166V367.078H264.262V371.524ZM276.384 360.148H281.82C284.628 360.148 286.176 361.588 286.176 363.982C286.176 366.412 284.628 367.852 281.82 367.852H278.004V373H276.384V360.148ZM278.004 366.412H281.55C283.746 366.412 284.538 365.494 284.538 364C284.538 362.506 283.746 361.588 281.55 361.588H278.004V366.412ZM290.742 360.148H292.326V371.038H292.722L298.698 360.148H301.236V373H299.652V362.11H299.256L293.28 373H290.742V360.148Z" fill="black"/>
<path d="M435.838 279.514C435.838 278.128 434.632 277.39 433.048 277.39C431.248 277.39 430.33 278.128 430.042 279.406H428.386C428.674 277.264 430.384 275.914 433.048 275.914C435.982 275.914 437.476 277.48 437.476 279.316C437.476 280.756 436.864 281.512 436.126 281.926V282.322C437.152 282.754 437.98 283.6 437.98 285.382C437.98 287.416 436.306 289.234 433.138 289.234C429.97 289.234 428.224 287.758 427.846 285.472H429.538C429.952 287.002 431.23 287.758 433.156 287.758C435.046 287.758 436.324 286.858 436.324 285.346C436.324 283.978 435.55 283.042 433.39 283.042H431.338V281.566H433.408C435.226 281.566 435.838 280.594 435.838 279.514ZM447.849 275.914C451.755 275.914 453.843 278.884 453.843 282.574C453.843 286.264 451.755 289.234 447.849 289.234C443.925 289.234 441.855 286.264 441.855 282.574C441.855 278.884 443.925 275.914 447.849 275.914ZM447.849 287.758C450.909 287.758 452.205 285.256 452.205 282.574C452.205 279.892 450.909 277.39 447.849 277.39C444.789 277.39 443.493 279.892 443.493 282.574C443.493 285.256 444.789 287.758 447.849 287.758ZM467.28 276.148H468.9V289H467.28V283.132H460.098V289H458.478V276.148H460.098V281.62H467.28V276.148ZM482.847 289L481.515 285.058H475.881L474.549 289H472.893L477.339 276.148H480.075L484.539 289H482.847ZM478.329 277.804L476.367 283.582H481.011L479.049 277.804H478.329ZM502.738 279.514C502.738 278.128 501.532 277.39 499.948 277.39C498.148 277.39 497.23 278.128 496.942 279.406H495.286C495.574 277.264 497.284 275.914 499.948 275.914C502.882 275.914 504.376 277.48 504.376 279.316C504.376 280.756 503.764 281.512 503.026 281.926V282.322C504.052 282.754 504.88 283.6 504.88 285.382C504.88 287.416 503.206 289.234 500.038 289.234C496.87 289.234 495.124 287.758 494.746 285.472H496.438C496.852 287.002 498.13 287.758 500.056 287.758C501.946 287.758 503.224 286.858 503.224 285.346C503.224 283.978 502.45 283.042 500.29 283.042H498.238V281.566H500.308C502.126 281.566 502.738 280.594 502.738 279.514ZM518.08 289L516.748 285.058H511.114L509.782 289H508.126L512.572 276.148H515.308L519.772 289H518.08ZM513.562 277.804L511.6 283.582H516.244L514.282 277.804H513.562ZM532.279 285.346H533.989C533.467 287.632 531.721 289.234 528.895 289.234C525.061 289.234 522.955 286.39 522.955 282.574C522.955 278.758 525.097 275.914 528.913 275.914C531.523 275.914 533.323 277.3 533.845 279.514H532.135C531.649 278.146 530.695 277.39 528.913 277.39C525.925 277.39 524.593 279.856 524.593 282.574C524.593 285.31 525.907 287.758 528.895 287.758C530.695 287.758 531.865 286.84 532.279 285.346ZM547.289 276.148V277.588H543.077V289H541.457V277.588H537.209V276.148H547.289ZM556.328 275.914C560.234 275.914 562.322 278.884 562.322 282.574C562.322 286.264 560.234 289.234 556.328 289.234C552.404 289.234 550.334 286.264 550.334 282.574C550.334 278.884 552.404 275.914 556.328 275.914ZM556.328 287.758C559.388 287.758 560.684 285.256 560.684 282.574C560.684 279.892 559.388 277.39 556.328 277.39C553.268 277.39 551.972 279.892 551.972 282.574C551.972 285.256 553.268 287.758 556.328 287.758ZM570.826 276.148H576.514V289H574.894V283.618H571.15C570.808 283.618 570.448 283.6 570.106 283.564L568.18 289H566.506L568.558 283.186C567.262 282.61 566.596 281.476 566.596 279.892C566.596 277.534 568.108 276.148 570.826 276.148ZM571.06 282.178H574.894V277.588H571.06C568.99 277.588 568.234 278.452 568.234 279.892C568.234 281.314 568.99 282.178 571.06 282.178Z" fill="black"/>
<path d="M610.638 360.148H620.934V373H619.314V361.624H612.258V373H610.638V360.148ZM631.554 359.914C635.46 359.914 637.548 362.884 637.548 366.574C637.548 370.264 635.46 373.234 631.554 373.234C627.63 373.234 625.56 370.264 625.56 366.574C625.56 362.884 627.63 359.914 631.554 359.914ZM631.554 371.758C634.614 371.758 635.91 369.256 635.91 366.574C635.91 363.892 634.614 361.39 631.554 361.39C628.494 361.39 627.198 363.892 627.198 366.574C627.198 369.256 628.494 371.758 631.554 371.758ZM650.668 360.148V361.588H646.456V373H644.836V361.588H640.588V360.148H650.668ZM654.642 360.148H660.078C662.886 360.148 664.434 361.588 664.434 363.982C664.434 366.412 662.886 367.852 660.078 367.852H656.262V373H654.642V360.148ZM656.262 366.412H659.808C662.004 366.412 662.796 365.494 662.796 364C662.796 362.506 662.004 361.588 659.808 361.588H656.262V366.412ZM670.619 371.524H678.233V373H668.999V360.148H677.945V361.624H670.619V365.602H676.523V367.078H670.619V371.524ZM684.362 365.368H688.232C690.986 365.368 692.534 366.79 692.534 369.184C692.534 371.578 690.986 373 688.232 373H682.742V360.148H691.544V361.624H684.362V365.368ZM684.362 371.56H687.962C690.14 371.56 690.914 370.66 690.914 369.166C690.914 367.708 690.14 366.79 687.962 366.79H684.362V371.56ZM697.099 360.148H698.683V371.038H699.079L705.055 360.148H707.593V373H706.009V362.11H705.613L699.637 373H697.099V360.148ZM721.629 360.148V361.588H717.417V373H715.797V361.588H711.549V360.148H721.629ZM727.223 371.524H734.837V373H725.603V360.148H734.549V361.624H727.223V365.602H733.127V367.078H727.223V371.524ZM737.941 371.398H738.283C739.975 371.398 740.695 370.408 740.695 364.864V360.148H749.137V373H747.517V361.624H742.225V365.17C742.225 371.488 741.055 373 738.301 373H737.941V371.398ZM754.406 360.148H755.99V371.038H756.386L762.362 360.148H764.9V373H763.316V362.11H762.92L756.944 373H754.406V360.148Z" fill="black"/>
<path d="M129 102L488 102" stroke="black" stroke-width="3"/>
<path d="M115 301.5H242.056C248.003 301.5 251.871 307.759 249.211 313.078L248 315.5M470.5 369H351.5C347.082 369 343.5 365.418 343.5 361V309.5C343.5 305.082 339.918 301.5 335.5 301.5H280.896C275.803 301.5 272.006 306.196 273.073 311.176L274 315.5" stroke="black" stroke-width="3"/>
<path d="M483.5 155.5H377.5C373.082 155.5 369.5 159.082 369.5 163.5V196C369.5 200.418 373.082 204 377.5 204H572.5" stroke="black" stroke-width="3"/>
<path d="M573.5 230H506.25C502.522 230 499.5 226.978 499.5 223.25V223.25C499.5 219.522 496.478 216.5 492.75 216.5H481.25C477.522 216.5 474.5 219.522 474.5 223.25V223.25C474.5 226.978 471.478 230 467.75 230H380C374.477 230 370 234.477 370 240V332C370 337.523 374.477 342 380 342H474.5" stroke="black" stroke-width="3"/>
<circle cx="223.5" cy="117.5" r="1.5" fill="black"/>
<circle cx="220.5" cy="140.5" r="1.5" fill="black"/>
<circle cx="231.5" cy="133.5" r="1.5" fill="black"/>
<circle cx="253.5" cy="125.5" r="1.5" fill="black"/>
<circle cx="256.5" cy="141.5" r="1.5" fill="black"/>
<circle cx="239.5" cy="152.5" r="1.5" fill="black"/>
<circle cx="234.5" cy="172.5" r="1.5" fill="black"/>
<circle cx="281.5" cy="149.5" r="1.5" fill="black"/>
<circle cx="318.5" cy="169.5" r="1.5" fill="black"/>
<circle cx="276.5" cy="192.5" r="1.5" fill="black"/>
<circle cx="262.5" cy="185.5" r="1.5" fill="black"/>
<circle cx="262.5" cy="153.5" r="1.5" fill="black"/>
<circle cx="277.5" cy="273.5" r="1.5" fill="black"/>
<circle cx="268.5" cy="288.5" r="1.5" fill="black"/>
<circle cx="263.5" cy="277.5" r="1.5" fill="black"/>
<circle cx="258.5" cy="291.5" r="1.5" fill="black"/>
<circle cx="275.5" cy="255.5" r="1.5" fill="black"/>
<circle cx="239.5" cy="189.5" r="1.5" fill="black"/>
<circle cx="250.5" cy="168.5" r="1.5" fill="black"/>
<circle cx="275.5" cy="173.5" r="1.5" fill="black"/>
<circle cx="239.5" cy="219.5" r="1.5" fill="black"/>
<circle cx="254.5" cy="232.5" r="1.5" fill="black"/>
<circle cx="238.5" cy="240.5" r="1.5" fill="black"/>
<circle cx="250.5" cy="255.5" r="1.5" fill="black"/>
<circle cx="231.5" cy="257.5" r="1.5" fill="black"/>
<circle cx="218.5" cy="268.5" r="1.5" fill="black"/>
<circle cx="224.5" cy="283.5" r="1.5" fill="black"/>
<circle cx="245.5" cy="274.5" r="1.5" fill="black"/>
<circle cx="243.5" cy="289.5" r="1.5" fill="black"/>
<circle cx="259.5" cy="308.5" r="1.5" fill="black"/>
<circle cx="265.5" cy="316.5" r="1.5" fill="black"/>
<circle cx="267.5" cy="303.5" r="1.5" fill="black"/>
<circle cx="255.5" cy="300.5" r="1.5" fill="black"/>
<circle cx="277.5" cy="291.5" r="1.5" fill="black"/>
<circle cx="302.5" cy="292.5" r="1.5" fill="black"/>
<circle cx="293.5" cy="281.5" r="1.5" fill="black"/>
<circle cx="295.5" cy="256.5" r="1.5" fill="black"/>
<circle cx="272.5" cy="241.5" r="1.5" fill="black"/>
<circle cx="288.5" cy="240.5" r="1.5" fill="black"/>
<circle cx="272.5" cy="213.5" r="1.5" fill="black"/>
<circle cx="305.5" cy="232.5" r="1.5" fill="black"/>
<circle cx="313.5" cy="257.5" r="1.5" fill="black"/>
<circle cx="313.5" cy="272.5" r="1.5" fill="black"/>
<circle cx="329.5" cy="257.5" r="1.5" fill="black"/>
<circle cx="323.5" cy="243.5" r="1.5" fill="black"/>
<circle cx="349.5" cy="254.5" r="1.5" fill="black"/>
<circle cx="360.5" cy="271.5" r="1.5" fill="black"/>
<circle cx="360.5" cy="242.5" r="1.5" fill="black"/>
<circle cx="331.5" cy="281.5" r="1.5" fill="black"/>
<circle cx="323.5" cy="290.5" r="1.5" fill="black"/>
<circle cx="349.5" cy="285.5" r="1.5" fill="black"/>
<circle cx="391.5" cy="351.5" r="1.5" fill="black"/>
<circle cx="381.5" cy="352.5" r="1.5" fill="black"/>
<circle cx="398.5" cy="358.5" r="1.5" fill="black"/>
<circle cx="404.5" cy="349.5" r="1.5" fill="black"/>
<circle cx="424.5" cy="355.5" r="1.5" fill="black"/>
<circle cx="410.5" cy="359.5" r="1.5" fill="black"/>
<circle cx="438.5" cy="349.5" r="1.5" fill="black"/>
<circle cx="442.5" cy="360.5" r="1.5" fill="black"/>
<circle cx="456.5" cy="353.5" r="1.5" fill="black"/>
<circle cx="464.5" cy="362.5" r="1.5" fill="black"/>
<circle cx="255.5" cy="320.5" r="1.5" fill="black"/>
<circle cx="258.5" cy="330.5" r="1.5" fill="black"/>
<circle cx="269.5" cy="323.5" r="1.5" fill="black"/>
<circle cx="268.5" cy="333.5" r="1.5" fill="black"/>
<circle cx="277.5" cy="336.5" r="1.5" fill="black"/>
<circle cx="285.5" cy="334.5" r="1.5" fill="black"/>
<circle cx="260.5" cy="341.5" r="1.5" fill="black"/>
<circle cx="244.5" cy="337.5" r="1.5" fill="black"/>
<circle cx="201.5" cy="286.5" r="1.5" fill="black"/>
<circle cx="298.5" cy="172.5" r="1.5" fill="black"/>
<circle cx="438.5" cy="213.5" r="1.5" fill="black"/>
<circle cx="404.5" cy="222.5" r="1.5" fill="black"/>
<circle cx="368.5" cy="213.5" r="1.5" fill="black"/>
<circle cx="348.5" cy="214.5" r="1.5" fill="black"/>
<circle cx="319.5" cy="218.5" r="1.5" fill="black"/>
<circle cx="291.5" cy="202.5" r="1.5" fill="black"/>
<circle cx="293.5" cy="217.5" r="1.5" fill="black"/>
<circle cx="241.5" cy="112.5" r="1.5" fill="black"/>
<circle cx="267.5" cy="115.5" r="1.5" fill="black"/>
<circle cx="282.5" cy="136.5" r="1.5" fill="black"/>
<circle cx="284.5" cy="120.5" r="1.5" fill="black"/>
<circle cx="298.5" cy="110.5" r="1.5" fill="black"/>
<circle cx="320.5" cy="112.5" r="1.5" fill="black"/>
<circle cx="352.5" cy="110.5" r="1.5" fill="black"/>
<circle cx="374.5" cy="110.5" r="1.5" fill="black"/>
<circle cx="356.5" cy="126.5" r="1.5" fill="black"/>
<circle cx="362.5" cy="116.5" r="1.5" fill="black"/>
<circle cx="315.5" cy="121.5" r="1.5" fill="black"/>
<circle cx="306.5" cy="134.5" r="1.5" fill="black"/>
<circle cx="331.5" cy="139.5" r="1.5" fill="black"/>
<circle cx="301.5" cy="149.5" r="1.5" fill="black"/>
<circle cx="336.5" cy="173.5" r="1.5" fill="black"/>
<circle cx="355.5" cy="155.5" r="1.5" fill="black"/>
<circle cx="355.5" cy="181.5" r="1.5" fill="black"/>
<circle cx="349.5" cy="199.5" r="1.5" fill="black"/>
<circle cx="303.5" cy="187.5" r="1.5" fill="black"/>
<circle cx="461.5" cy="214.5" r="1.5" fill="black"/>
<circle cx="445.5" cy="224.5" r="1.5" fill="black"/>
<circle cx="435.5" cy="221.5" r="1.5" fill="black"/>
<circle cx="476.5" cy="210.5" r="1.5" fill="black"/>
<circle cx="465.5" cy="208.5" r="1.5" fill="black"/>
<circle cx="547.5" cy="212.5" r="1.5" fill="black"/>
<circle cx="537.5" cy="221.5" r="1.5" fill="black"/>
<circle cx="529.5" cy="213.5" r="1.5" fill="black"/>
<circle cx="522.5" cy="222.5" r="1.5" fill="black"/>
<circle cx="517.5" cy="211.5" r="1.5" fill="black"/>
<circle cx="502.5" cy="213.5" r="1.5" fill="black"/>
<circle cx="317.5" cy="149.5" r="1.5" fill="black"/>
<circle cx="339.5" cy="116.5" r="1.5" fill="black"/>
<circle cx="350.5" cy="139.5" r="1.5" fill="black"/>
<path d="M226 201H224.5V204H226V201ZM271 209.16C271 209.989 272.015 210.574 272.732 210.16L284.268 203.5C284.985 203.086 284.985 201.914 284.268 201.5L272.732 194.84C272.015 194.426 271 195.011 271 195.84V209.16ZM226 204H272.5V201H226V204Z" fill="black"/>
<circle cx="385.5" cy="217.5" r="1.5" fill="black"/>
<circle cx="404.5" cy="212.5" r="1.5" fill="black"/>
<circle cx="368.5" cy="232.5" r="1.5" fill="black"/>
<circle cx="333.5" cy="218.5" r="1.5" fill="black"/>
<circle cx="341.5" cy="233.5" r="1.5" fill="black"/>
<circle cx="452.5" cy="218.5" r="1.5" fill="black"/>
<circle cx="423.5" cy="220.5" r="1.5" fill="black"/>
<circle cx="461.5" cy="220.5" r="1.5" fill="black"/>
<circle cx="468.5" cy="218.5" r="1.5" fill="black"/>
<circle cx="483.5" cy="208.5" r="1.5" fill="black"/>
<circle cx="470.5" cy="211.5" r="1.5" fill="black"/>
<circle cx="454.5" cy="209.5" r="1.5" fill="black"/>
<circle cx="424.5" cy="210.5" r="1.5" fill="black"/>
<circle cx="496.5" cy="208.5" r="1.5" fill="black"/>
<circle cx="510.5" cy="218.5" r="1.5" fill="black"/>
<circle cx="506.5" cy="208.5" r="1.5" fill="black"/>
<circle cx="457.5" cy="223.5" r="1.5" fill="black"/>
<circle cx="369.5" cy="132.5" r="1.5" fill="black"/>
<circle cx="380.5" cy="144.5" r="1.5" fill="black"/>
<circle cx="489.5" cy="211.5" r="1.5" fill="black"/>
<circle cx="400.5" cy="128.5" r="1.5" fill="black"/>
<circle cx="557.5" cy="220.5" r="1.5" fill="black"/>
<circle cx="401.5" cy="112.5" r="1.5" fill="black"/>
<circle cx="413.5" cy="122.5" r="1.5" fill="black"/>
<circle cx="426.5" cy="113.5" r="1.5" fill="black"/>
<circle cx="423.5" cy="130.5" r="1.5" fill="black"/>
<circle cx="435.5" cy="146.5" r="1.5" fill="black"/>
<circle cx="439.5" cy="123.5" r="1.5" fill="black"/>
<circle cx="444.5" cy="136.5" r="1.5" fill="black"/>
<circle cx="446.5" cy="114.5" r="1.5" fill="black"/>
<circle cx="460.5" cy="110.5" r="1.5" fill="black"/>
<circle cx="455.5" cy="126.5" r="1.5" fill="black"/>
<circle cx="469.5" cy="120.5" r="1.5" fill="black"/>
<circle cx="458.5" cy="139.5" r="1.5" fill="black"/>
<circle cx="466.5" cy="131.5" r="1.5" fill="black"/>
<circle cx="466.5" cy="147.5" r="1.5" fill="black"/>
<circle cx="413.5" cy="144.5" r="1.5" fill="black"/>
<circle cx="390.5" cy="121.5" r="1.5" fill="black"/>
<circle cx="199.5" cy="109.5" r="1.5" fill="black"/>
<circle cx="209.5" cy="125.5" r="1.5" fill="black"/>
<path d="M385.183 174V164.718H386.353V168.683H389.161L391.02 164.718H392.255L390.175 169.229L392.372 174H391.137L389.161 169.749H386.353V174H385.183ZM398.232 174V173.311H397.946C397.543 173.818 396.841 174.169 395.905 174.169C394.397 174.169 393.552 173.155 393.552 172.037C393.552 170.984 394.241 169.866 396.061 169.866H398.193V169.606C398.193 168.813 397.738 168.241 396.594 168.241C395.619 168.241 395.125 168.618 395.073 169.19H393.968C394.059 167.981 395.099 167.279 396.568 167.279C398.219 167.279 399.272 168.072 399.272 169.541V174H398.232ZM396.178 173.207C397.27 173.207 398.193 172.388 398.193 171.348V170.75H396.23C395.151 170.75 394.657 171.218 394.657 171.998C394.657 172.739 395.203 173.207 396.178 173.207ZM407.327 174H406.222V171.114H402.595V174H401.49V167.448H402.595V170.152H406.222V167.448H407.327V174ZM413.831 174V173.311H413.545C413.142 173.818 412.44 174.169 411.504 174.169C409.996 174.169 409.151 173.155 409.151 172.037C409.151 170.984 409.84 169.866 411.66 169.866H413.792V169.606C413.792 168.813 413.337 168.241 412.193 168.241C411.218 168.241 410.724 168.618 410.672 169.19H409.567C409.658 167.981 410.698 167.279 412.167 167.279C413.818 167.279 414.871 168.072 414.871 169.541V174H413.831ZM411.777 173.207C412.869 173.207 413.792 172.388 413.792 171.348V170.75H411.829C410.75 170.75 410.256 171.218 410.256 171.998C410.256 172.739 410.802 173.207 411.777 173.207ZM416.348 174V172.96H416.569C417.453 172.96 417.856 172.31 417.856 169.983V167.448H422.874V174H421.756V168.41H418.883V170.009C418.883 173.025 418.181 174 416.569 174H416.348ZM428.708 174V172.986H430.866V166.096H430.606L428.695 167.383V166.187L430.593 164.9H432.01V172.986H433.999V174H428.708Z" fill="black"/>
<path d="M385.183 249V239.718H386.353V243.683H389.161L391.02 239.718H392.255L390.175 244.229L392.372 249H391.137L389.161 244.749H386.353V249H385.183ZM398.232 249V248.311H397.946C397.543 248.818 396.841 249.169 395.905 249.169C394.397 249.169 393.552 248.155 393.552 247.037C393.552 245.984 394.241 244.866 396.061 244.866H398.193V244.606C398.193 243.813 397.738 243.241 396.594 243.241C395.619 243.241 395.125 243.618 395.073 244.19H393.968C394.059 242.981 395.099 242.279 396.568 242.279C398.219 242.279 399.272 243.072 399.272 244.541V249H398.232ZM396.178 248.207C397.27 248.207 398.193 247.388 398.193 246.348V245.75H396.23C395.151 245.75 394.657 246.218 394.657 246.998C394.657 247.739 395.203 248.207 396.178 248.207ZM407.327 249H406.222V246.114H402.595V249H401.49V242.448H402.595V245.152H406.222V242.448H407.327V249ZM413.831 249V248.311H413.545C413.142 248.818 412.44 249.169 411.504 249.169C409.996 249.169 409.151 248.155 409.151 247.037C409.151 245.984 409.84 244.866 411.66 244.866H413.792V244.606C413.792 243.813 413.337 243.241 412.193 243.241C411.218 243.241 410.724 243.618 410.672 244.19H409.567C409.658 242.981 410.698 242.279 412.167 242.279C413.818 242.279 414.871 243.072 414.871 244.541V249H413.831ZM411.777 248.207C412.869 248.207 413.792 247.388 413.792 246.348V245.75H411.829C410.75 245.75 410.256 246.218 410.256 246.998C410.256 247.739 410.802 248.207 411.777 248.207ZM416.348 249V247.96H416.569C417.453 247.96 417.856 247.31 417.856 244.983V242.448H422.874V249H421.756V243.41H418.883V245.009C418.883 248.025 418.181 249 416.569 249H416.348ZM429.774 242.409H428.63C428.734 240.589 430.047 239.718 431.659 239.718C433.362 239.718 434.61 240.667 434.61 242.487C434.61 243.722 433.674 244.879 432.595 245.776L430.307 247.7V247.986H434.896V249H428.643V247.713L429.982 246.621C430.71 246.036 431.568 245.308 432.049 244.866C432.673 244.307 433.466 243.566 433.466 242.487C433.466 241.343 432.738 240.732 431.633 240.732C430.606 240.732 429.891 241.265 429.774 242.409Z" fill="black"/>
<path d="M385.183 390V380.718H386.353V384.683H389.161L391.02 380.718H392.255L390.175 385.229L392.372 390H391.137L389.161 385.749H386.353V390H385.183ZM398.232 390V389.311H397.946C397.543 389.818 396.841 390.169 395.905 390.169C394.397 390.169 393.552 389.155 393.552 388.037C393.552 386.984 394.241 385.866 396.061 385.866H398.193V385.606C398.193 384.813 397.738 384.241 396.594 384.241C395.619 384.241 395.125 384.618 395.073 385.19H393.968C394.059 383.981 395.099 383.279 396.568 383.279C398.219 383.279 399.272 384.072 399.272 385.541V390H398.232ZM396.178 389.207C397.27 389.207 398.193 388.388 398.193 387.348V386.75H396.23C395.151 386.75 394.657 387.218 394.657 387.998C394.657 388.739 395.203 389.207 396.178 389.207ZM407.327 390H406.222V387.114H402.595V390H401.49V383.448H402.595V386.152H406.222V383.448H407.327V390ZM413.831 390V389.311H413.545C413.142 389.818 412.44 390.169 411.504 390.169C409.996 390.169 409.151 389.155 409.151 388.037C409.151 386.984 409.84 385.866 411.66 385.866H413.792V385.606C413.792 384.813 413.337 384.241 412.193 384.241C411.218 384.241 410.724 384.618 410.672 385.19H409.567C409.658 383.981 410.698 383.279 412.167 383.279C413.818 383.279 414.871 384.072 414.871 385.541V390H413.831ZM411.777 389.207C412.869 389.207 413.792 388.388 413.792 387.348V386.75H411.829C410.75 386.75 410.256 387.218 410.256 387.998C410.256 388.739 410.802 389.207 411.777 389.207ZM416.348 390V388.96H416.569C417.453 388.96 417.856 388.31 417.856 385.983V383.448H422.874V390H421.756V384.41H418.883V386.009C418.883 389.025 418.181 390 416.569 390H416.348ZM428.968 380.9H434.285V382.174L432.01 384.124V384.397C433.57 384.436 434.714 385.411 434.714 387.166C434.714 389.051 433.362 390.169 431.503 390.169C429.657 390.169 428.422 388.999 428.318 387.452H429.462C429.566 388.492 430.411 389.155 431.503 389.155C432.751 389.155 433.57 388.414 433.57 387.166C433.57 385.97 432.855 385.229 431.516 385.229C431.191 385.229 430.931 385.255 430.723 385.307V384.098L432.946 382.174V381.888H428.968V380.9Z" fill="black"/>
<circle cx="348.5" cy="321.5" r="1.5" fill="black"/>
<circle cx="361.5" cy="313.5" r="1.5" fill="black"/>
<circle cx="351.5" cy="343.5" r="1.5" fill="black"/>
<circle cx="378.5" cy="362.5" r="1.5" fill="black"/>
<circle cx="354.5" cy="358.5" r="1.5" fill="black"/>
<circle cx="363.5" cy="340.5" r="1.5" fill="black"/>
<circle cx="360.5" cy="331.5" r="1.5" fill="black"/>
<circle cx="367.5" cy="352.5" r="1.5" fill="black"/>
<circle cx="358.5" cy="295.5" r="1.5" fill="black"/>
<line x1="552" y1="362.5" x2="602" y2="362.5" stroke="#808080"/>
<line x1="613.5" y1="259" x2="613.5" y2="353" stroke="#808080"/>
<line x1="466.5" y1="224" x2="465.5" y2="272" stroke="#808080"/>
<line x1="281.5" y1="45" x2="280.5" y2="93" stroke="#808080"/>
</svg>
