<svg width="855" height="436" viewBox="0 0 855 436" fill="none" xmlns="http://www.w3.org/2000/svg">
<rect width="855" height="436" fill="#F5F4F0"/>
<circle cx="239" cy="173" r="139" fill="white" stroke="black" stroke-width="4"/>
<circle cx="625" cy="173" r="139" fill="white" stroke="black" stroke-width="4"/>
<path d="M164.309 346V333.862H167.471V338.333H169.919L172.01 333.862H175.189L172.469 339.761L175.342 346H172.163L169.936 341.172H167.471V346H164.309ZM175.99 346V343.161H176.313C177.384 343.161 177.86 342.685 177.86 341.053V337.16H185.867V346H182.909V339.574H180.563V341.172C180.563 344.742 179.169 346 176.313 346H175.99ZM197.035 336.939C199.772 336.939 201.693 338.843 201.693 341.58C201.693 344.317 199.772 346.221 197.035 346.221C194.655 346.221 192.921 344.861 192.462 342.668H191.102V346H188.212V337.16H191.102V340.254H192.513C193.04 338.197 194.74 336.939 197.035 336.939ZM196.984 343.807C198.208 343.807 198.735 342.821 198.735 341.58C198.735 340.356 198.208 339.353 196.984 339.353C195.743 339.353 195.216 340.356 195.216 341.58C195.216 342.821 195.743 343.807 196.984 343.807ZM203.093 337.16H206.051V339.778C206.051 340.322 206.204 340.866 207.394 340.866C207.921 340.866 208.329 340.798 208.737 340.713V337.16H211.695V346H208.737V343.059C208.006 343.195 207.054 343.28 206.323 343.28C203.467 343.28 203.093 341.852 203.093 340.475V337.16ZM219.552 343.144H222.544C222.153 345.065 220.742 346.221 218.209 346.221C215.404 346.221 213.568 344.487 213.568 341.58C213.568 338.69 215.37 336.939 218.141 336.939C220.946 336.939 222.612 338.639 222.612 341.291V341.971H216.492C216.611 343.178 217.155 343.807 218.26 343.807C218.991 343.807 219.365 343.603 219.552 343.144ZM218.141 339.047C217.274 339.047 216.832 339.455 216.611 340.203H219.586C219.433 339.438 218.94 339.047 218.141 339.047ZM231.677 341.087V341.563C232.544 341.784 233.19 342.413 233.19 343.552C233.19 345.184 232.051 346 230.062 346H224.486V337.16H229.943C231.728 337.16 232.731 337.993 232.731 339.404C232.731 340.271 232.204 340.832 231.677 341.087ZM227.359 344.113H229.093C229.96 344.113 230.232 343.739 230.232 343.212C230.232 342.685 229.96 342.311 229.093 342.311H227.359V344.113ZM227.359 339.03V340.56H228.872C229.552 340.56 229.773 340.203 229.773 339.795C229.773 339.37 229.552 339.03 228.872 339.03H227.359ZM238.953 336.939C241.452 336.939 243.169 337.823 243.169 340.424V346H240.466V345.32H239.99C239.463 345.915 238.8 346.221 237.661 346.221C235.706 346.221 234.567 344.81 234.567 343.246C234.567 341.869 235.604 340.305 238.29 340.305H240.33V340.152C240.33 339.319 239.871 339.03 239.123 339.03C238.375 339.03 238.018 339.319 237.95 339.795H235.026C235.077 338.078 236.692 336.939 238.953 336.939ZM240.33 342.515V341.988H238.902C238.086 341.988 237.525 342.345 237.525 343.008C237.525 343.688 237.984 344.045 238.783 344.045C239.752 344.045 240.33 343.382 240.33 342.515ZM253.445 337.16V346H250.487V343.365H248.889L247.886 346H245.013L246.271 342.736C245.421 342.209 244.996 341.393 244.996 340.288C244.996 338.333 246.373 337.16 248.889 337.16H253.445ZM247.886 340.356C247.886 340.951 248.141 341.291 249.11 341.291H250.487V339.472H249.11C248.141 339.472 247.886 339.829 247.886 340.356ZM259.168 339.574V337.16H267.736V339.574H264.931V346H261.973V339.574H259.168ZM273.677 336.939C276.516 336.939 278.386 338.724 278.386 341.58C278.386 344.436 276.516 346.221 273.677 346.221C270.855 346.221 268.951 344.436 268.951 341.58C268.951 338.724 270.855 336.939 273.677 336.939ZM273.677 343.807C274.901 343.807 275.428 342.821 275.428 341.58C275.428 340.356 274.901 339.353 273.677 339.353C272.436 339.353 271.909 340.356 271.909 341.58C271.909 342.821 272.436 343.807 273.677 343.807ZM279.775 337.16H282.733V339.778C282.733 340.322 282.886 340.866 284.076 340.866C284.603 340.866 285.011 340.798 285.419 340.713V337.16H288.377V346H285.419V343.059C284.688 343.195 283.736 343.28 283.005 343.28C280.149 343.28 279.775 341.852 279.775 340.475V337.16ZM296.881 346L295.198 342.651H293.685V346H290.727V337.16H293.685V340.237H295.232L296.813 337.16H299.805L297.629 341.427L299.941 346H296.881ZM305.459 336.939C307.958 336.939 309.675 337.823 309.675 340.424V346H306.972V345.32H306.496C305.969 345.915 305.306 346.221 304.167 346.221C302.212 346.221 301.073 344.81 301.073 343.246C301.073 341.869 302.11 340.305 304.796 340.305H306.836V340.152C306.836 339.319 306.377 339.03 305.629 339.03C304.881 339.03 304.524 339.319 304.456 339.795H301.532C301.583 338.078 303.198 336.939 305.459 336.939ZM306.836 342.515V341.988H305.408C304.592 341.988 304.031 342.345 304.031 343.008C304.031 343.688 304.49 344.045 305.289 344.045C306.258 344.045 306.836 343.382 306.836 342.515ZM321.946 343.382H324.309V346H316.302V343.382H318.92V337.075H318.444L316.302 338.554V335.596L318.427 334.1H321.946V343.382ZM329.048 346H325.92V343.042H329.048V346ZM171.687 360.869H174.934C174.611 363.436 172.69 365.221 169.698 365.221C165.958 365.221 163.782 362.705 163.782 358.931C163.782 355.157 165.958 352.641 169.698 352.641C172.571 352.641 174.424 354.307 174.832 356.619H171.551C171.347 355.82 170.65 355.429 169.698 355.429C167.93 355.429 167.012 356.874 167.012 358.931C167.012 360.971 167.93 362.433 169.698 362.433C170.786 362.433 171.534 361.889 171.687 360.869ZM181.156 355.939C183.995 355.939 185.865 357.724 185.865 360.58C185.865 363.436 183.995 365.221 181.156 365.221C178.334 365.221 176.43 363.436 176.43 360.58C176.43 357.724 178.334 355.939 181.156 355.939ZM181.156 362.807C182.38 362.807 182.907 361.821 182.907 360.58C182.907 359.356 182.38 358.353 181.156 358.353C179.915 358.353 179.388 359.356 179.388 360.58C179.388 361.821 179.915 362.807 181.156 362.807ZM192.746 358.965C192.746 358.54 192.287 358.268 191.488 358.268C190.672 358.268 190.196 358.557 190.128 359.033H187.459C187.646 356.891 189.448 355.939 191.726 355.939C194.14 355.939 195.653 357.01 195.653 358.523C195.653 359.56 195.194 359.934 194.786 360.155V360.631C195.449 360.852 195.891 361.362 195.891 362.365C195.891 364.065 194.191 365.221 191.692 365.221C188.768 365.221 187.357 364.065 187.17 362.076H189.856C190.009 362.688 190.689 362.892 191.505 362.892C192.389 362.892 192.933 362.654 192.933 362.127C192.933 361.651 192.542 361.498 191.811 361.498H190.434V359.628H191.726C192.406 359.628 192.746 359.407 192.746 358.965ZM206.902 362.586H208.432V367.431H205.678V365H199.762V367.431H197.008V362.586H198.402C198.742 361.549 198.98 360.274 198.98 358.778V356.16H206.902V362.586ZM203.944 362.586V358.574H201.632V358.795C201.632 360.291 201.428 361.549 201.139 362.586H203.944ZM213.951 355.939C216.45 355.939 218.167 356.823 218.167 359.424V365H215.464V364.32H214.988C214.461 364.915 213.798 365.221 212.659 365.221C210.704 365.221 209.565 363.81 209.565 362.246C209.565 360.869 210.602 359.305 213.288 359.305H215.328V359.152C215.328 358.319 214.869 358.03 214.121 358.03C213.373 358.03 213.016 358.319 212.948 358.795H210.024C210.075 357.078 211.69 355.939 213.951 355.939ZM215.328 361.515V360.988H213.9C213.084 360.988 212.523 361.345 212.523 362.008C212.523 362.688 212.982 363.045 213.781 363.045C214.75 363.045 215.328 362.382 215.328 361.515ZM229.276 365H226.318V361.668H223.36V365H220.402V356.16H223.36V359.254H226.318V356.16H229.276V365ZM234.124 365H231.625V356.16H234.498V360.172H234.906L238.068 356.16H240.567V365H237.694V360.988H237.286L234.124 365ZM248.422 362.144H251.414C251.023 364.065 249.612 365.221 247.079 365.221C244.274 365.221 242.438 363.487 242.438 360.58C242.438 357.69 244.24 355.939 247.011 355.939C249.816 355.939 251.482 357.639 251.482 360.291V360.971H245.362C245.481 362.178 246.025 362.807 247.13 362.807C247.861 362.807 248.235 362.603 248.422 362.144ZM247.011 358.047C246.144 358.047 245.702 358.455 245.481 359.203H248.456C248.303 358.438 247.81 358.047 247.011 358.047ZM258.088 365V356.16H265.551V358.574H261.046V365H258.088ZM271.01 355.939C273.509 355.939 275.226 356.823 275.226 359.424V365H272.523V364.32H272.047C271.52 364.915 270.857 365.221 269.718 365.221C267.763 365.221 266.624 363.81 266.624 362.246C266.624 360.869 267.661 359.305 270.347 359.305H272.387V359.152C272.387 358.319 271.928 358.03 271.18 358.03C270.432 358.03 270.075 358.319 270.007 358.795H267.083C267.134 357.078 268.749 355.939 271.01 355.939ZM272.387 361.515V360.988H270.959C270.143 360.988 269.582 361.345 269.582 362.008C269.582 362.688 270.041 363.045 270.84 363.045C271.809 363.045 272.387 362.382 272.387 361.515ZM282.477 358.965C282.477 358.54 282.018 358.268 281.219 358.268C280.403 358.268 279.927 358.557 279.859 359.033H277.19C277.377 356.891 279.179 355.939 281.457 355.939C283.871 355.939 285.384 357.01 285.384 358.523C285.384 359.56 284.925 359.934 284.517 360.155V360.631C285.18 360.852 285.622 361.362 285.622 362.365C285.622 364.065 283.922 365.221 281.423 365.221C278.499 365.221 277.088 364.065 276.901 362.076H279.587C279.74 362.688 280.42 362.892 281.236 362.892C282.12 362.892 282.664 362.654 282.664 362.127C282.664 361.651 282.273 361.498 281.542 361.498H280.165V359.628H281.457C282.137 359.628 282.477 359.407 282.477 358.965ZM291.822 355.939C294.661 355.939 296.531 357.724 296.531 360.58C296.531 363.436 294.661 365.221 291.822 365.221C289 365.221 287.096 363.436 287.096 360.58C287.096 357.724 289 355.939 291.822 355.939ZM291.822 362.807C293.046 362.807 293.573 361.821 293.573 360.58C293.573 359.356 293.046 358.353 291.822 358.353C290.581 358.353 290.054 359.356 290.054 360.58C290.054 361.821 290.581 362.807 291.822 362.807ZM307.271 365H304.313V361.668H301.355V365H298.397V356.16H301.355V359.254H304.313V356.16H307.271V365ZM313.427 355.939C315.926 355.939 317.643 356.823 317.643 359.424V365H314.94V364.32H314.464C313.937 364.915 313.274 365.221 312.135 365.221C310.18 365.221 309.041 363.81 309.041 362.246C309.041 360.869 310.078 359.305 312.764 359.305H314.804V359.152C314.804 358.319 314.345 358.03 313.597 358.03C312.849 358.03 312.492 358.319 312.424 358.795H309.5C309.551 357.078 311.166 355.939 313.427 355.939ZM314.804 361.515V360.988H313.376C312.56 360.988 311.999 361.345 311.999 362.008C311.999 362.688 312.458 363.045 313.257 363.045C314.226 363.045 314.804 362.382 314.804 361.515Z" fill="black"/>
<path d="M559.309 346V333.862H562.471V338.333H564.919L567.01 333.862H570.189L567.469 339.761L570.342 346H567.163L564.936 341.172H562.471V346H559.309ZM570.99 346V343.161H571.313C572.384 343.161 572.86 342.685 572.86 341.053V337.16H580.867V346H577.909V339.574H575.563V341.172C575.563 344.742 574.169 346 571.313 346H570.99ZM592.035 336.939C594.772 336.939 596.693 338.843 596.693 341.58C596.693 344.317 594.772 346.221 592.035 346.221C589.655 346.221 587.921 344.861 587.462 342.668H586.102V346H583.212V337.16H586.102V340.254H587.513C588.04 338.197 589.74 336.939 592.035 336.939ZM591.984 343.807C593.208 343.807 593.735 342.821 593.735 341.58C593.735 340.356 593.208 339.353 591.984 339.353C590.743 339.353 590.216 340.356 590.216 341.58C590.216 342.821 590.743 343.807 591.984 343.807ZM598.093 337.16H601.051V339.778C601.051 340.322 601.204 340.866 602.394 340.866C602.921 340.866 603.329 340.798 603.737 340.713V337.16H606.695V346H603.737V343.059C603.006 343.195 602.054 343.28 601.323 343.28C598.467 343.28 598.093 341.852 598.093 340.475V337.16ZM614.552 343.144H617.544C617.153 345.065 615.742 346.221 613.209 346.221C610.404 346.221 608.568 344.487 608.568 341.58C608.568 338.69 610.37 336.939 613.141 336.939C615.946 336.939 617.612 338.639 617.612 341.291V341.971H611.492C611.611 343.178 612.155 343.807 613.26 343.807C613.991 343.807 614.365 343.603 614.552 343.144ZM613.141 339.047C612.274 339.047 611.832 339.455 611.611 340.203H614.586C614.433 339.438 613.94 339.047 613.141 339.047ZM626.677 341.087V341.563C627.544 341.784 628.19 342.413 628.19 343.552C628.19 345.184 627.051 346 625.062 346H619.486V337.16H624.943C626.728 337.16 627.731 337.993 627.731 339.404C627.731 340.271 627.204 340.832 626.677 341.087ZM622.359 344.113H624.093C624.96 344.113 625.232 343.739 625.232 343.212C625.232 342.685 624.96 342.311 624.093 342.311H622.359V344.113ZM622.359 339.03V340.56H623.872C624.552 340.56 624.773 340.203 624.773 339.795C624.773 339.37 624.552 339.03 623.872 339.03H622.359ZM633.953 336.939C636.452 336.939 638.169 337.823 638.169 340.424V346H635.466V345.32H634.99C634.463 345.915 633.8 346.221 632.661 346.221C630.706 346.221 629.567 344.81 629.567 343.246C629.567 341.869 630.604 340.305 633.29 340.305H635.33V340.152C635.33 339.319 634.871 339.03 634.123 339.03C633.375 339.03 633.018 339.319 632.95 339.795H630.026C630.077 338.078 631.692 336.939 633.953 336.939ZM635.33 342.515V341.988H633.902C633.086 341.988 632.525 342.345 632.525 343.008C632.525 343.688 632.984 344.045 633.783 344.045C634.752 344.045 635.33 343.382 635.33 342.515ZM648.445 337.16V346H645.487V343.365H643.889L642.886 346H640.013L641.271 342.736C640.421 342.209 639.996 341.393 639.996 340.288C639.996 338.333 641.373 337.16 643.889 337.16H648.445ZM642.886 340.356C642.886 340.951 643.141 341.291 644.11 341.291H645.487V339.472H644.11C643.141 339.472 642.886 339.829 642.886 340.356ZM654.168 339.574V337.16H662.736V339.574H659.931V346H656.973V339.574H654.168ZM668.677 336.939C671.516 336.939 673.386 338.724 673.386 341.58C673.386 344.436 671.516 346.221 668.677 346.221C665.855 346.221 663.951 344.436 663.951 341.58C663.951 338.724 665.855 336.939 668.677 336.939ZM668.677 343.807C669.901 343.807 670.428 342.821 670.428 341.58C670.428 340.356 669.901 339.353 668.677 339.353C667.436 339.353 666.909 340.356 666.909 341.58C666.909 342.821 667.436 343.807 668.677 343.807ZM674.775 337.16H677.733V339.778C677.733 340.322 677.886 340.866 679.076 340.866C679.603 340.866 680.011 340.798 680.419 340.713V337.16H683.377V346H680.419V343.059C679.688 343.195 678.736 343.28 678.005 343.28C675.149 343.28 674.775 341.852 674.775 340.475V337.16ZM691.881 346L690.198 342.651H688.685V346H685.727V337.16H688.685V340.237H690.232L691.813 337.16H694.805L692.629 341.427L694.941 346H691.881ZM700.459 336.939C702.958 336.939 704.675 337.823 704.675 340.424V346H701.972V345.32H701.496C700.969 345.915 700.306 346.221 699.167 346.221C697.212 346.221 696.073 344.81 696.073 343.246C696.073 341.869 697.11 340.305 699.796 340.305H701.836V340.152C701.836 339.319 701.377 339.03 700.629 339.03C699.881 339.03 699.524 339.319 699.456 339.795H696.532C696.583 338.078 698.198 336.939 700.459 336.939ZM701.836 342.515V341.988H700.408C699.592 341.988 699.031 342.345 699.031 343.008C699.031 343.688 699.49 344.045 700.289 344.045C701.258 344.045 701.836 343.382 701.836 342.515ZM720.431 343.382V346H711.285V342.906L715.127 340.288C716.147 339.591 717.099 338.894 717.099 337.857C717.099 336.956 716.555 336.48 715.756 336.48C714.957 336.48 714.362 336.905 714.294 337.874H711.268C711.387 335.307 713.019 333.862 715.858 333.862C718.391 333.862 720.142 335.29 720.142 337.823C720.142 340.22 717.762 341.767 715.994 342.906V343.382H720.431ZM725.294 346H722.166V343.042H725.294V346ZM559.309 352.862H565.123C567.996 352.862 569.662 354.324 569.662 356.857C569.662 359.424 567.996 360.92 565.123 360.92H562.471V365H559.309V352.862ZM562.471 358.217H564.715C565.956 358.217 566.432 357.775 566.432 356.908C566.432 356.041 565.956 355.616 564.715 355.616H562.471V358.217ZM576.618 362.144H579.61C579.219 364.065 577.808 365.221 575.275 365.221C572.47 365.221 570.634 363.487 570.634 360.58C570.634 357.69 572.436 355.939 575.207 355.939C578.012 355.939 579.678 357.639 579.678 360.291V360.971H573.558C573.677 362.178 574.221 362.807 575.326 362.807C576.057 362.807 576.431 362.603 576.618 362.144ZM575.207 358.047C574.34 358.047 573.898 358.455 573.677 359.203H576.652C576.499 358.438 576.006 358.047 575.207 358.047ZM581.552 365V356.16H589.015V358.574H584.51V365H581.552ZM596.973 356.16H599.897L594.542 368.4H591.618L593.471 364.031L589.765 356.16H592.723L594.712 360.444H595.188L596.973 356.16ZM600.043 365V362.161H600.366C601.437 362.161 601.913 361.685 601.913 360.053V356.16H609.92V365H606.962V358.574H604.616V360.172C604.616 363.742 603.222 365 600.366 365H600.043ZM620.306 356.16V365H617.348V362.365H615.75L614.747 365H611.874L613.132 361.736C612.282 361.209 611.857 360.393 611.857 359.288C611.857 357.333 613.234 356.16 615.75 356.16H620.306ZM614.747 359.356C614.747 359.951 615.002 360.291 615.971 360.291H617.348V358.472H615.971C615.002 358.472 614.747 358.829 614.747 359.356ZM628.285 365.221C627.18 365.221 626.534 364.847 626.075 364.252H625.599V368.4H622.641V356.16H625.497V356.908H625.973C626.449 356.313 627.129 355.939 628.285 355.939C630.597 355.939 631.957 357.877 631.957 360.58C631.957 363.283 630.546 365.221 628.285 365.221ZM627.265 358.353C626.024 358.353 625.48 359.39 625.48 360.58C625.48 361.77 626.024 362.807 627.265 362.807C628.506 362.807 628.999 361.77 628.999 360.58C628.999 359.39 628.506 358.353 627.265 358.353ZM642.704 365H639.746V361.668H636.788V365H633.83V356.16H636.788V359.254H639.746V356.16H642.704V365ZM648.011 356.16V358.574H649.745C652.125 358.574 653.417 359.764 653.417 361.753C653.417 363.776 652.125 365 649.745 365H645.053V356.16H648.011ZM657.633 356.16V365H654.675V356.16H657.633ZM648.011 362.586H649.303C650.204 362.586 650.459 362.229 650.459 361.685C650.459 361.09 650.204 360.75 649.303 360.75H648.011V362.586ZM662.477 365H659.978V356.16H662.851V360.172H663.259L666.421 356.16H668.92V365H666.047V360.988H665.639L662.477 365ZM664.449 355.463C662.358 355.463 661.287 354.426 661.083 352.862H663.327C663.446 353.219 663.718 353.644 664.449 353.644C665.18 353.644 665.452 353.219 665.571 352.862H667.815C667.611 354.426 666.54 355.463 664.449 355.463ZM682.305 356.16H685.229L679.874 368.4H676.95L678.803 364.031L675.097 356.16H678.055L680.044 360.444H680.52L682.305 356.16ZM692.657 365L691.212 362.025H690.566L689.104 365H686.027L688.407 360.461L686.265 356.16H689.308L690.617 358.931H691.263L692.606 356.16H695.615L693.422 360.427L695.785 365H692.657ZM701.482 355.939C704.321 355.939 706.191 357.724 706.191 360.58C706.191 363.436 704.321 365.221 701.482 365.221C698.66 365.221 696.756 363.436 696.756 360.58C696.756 357.724 698.66 355.939 701.482 355.939ZM701.482 362.807C702.706 362.807 703.233 361.821 703.233 360.58C703.233 359.356 702.706 358.353 701.482 358.353C700.241 358.353 699.714 359.356 699.714 360.58C699.714 361.821 700.241 362.807 701.482 362.807ZM717.117 362.586H718.647V367.431H715.893V365H709.977V367.431H707.223V362.586H708.617C708.957 361.549 709.195 360.274 709.195 358.778V356.16H717.117V362.586ZM714.159 362.586V358.574H711.847V358.795C711.847 360.291 711.643 361.549 711.354 362.586H714.159ZM564.188 377.965C564.188 377.54 563.729 377.268 562.93 377.268C562.114 377.268 561.638 377.557 561.57 378.033H558.901C559.088 375.891 560.89 374.939 563.168 374.939C565.582 374.939 567.095 376.01 567.095 377.523C567.095 378.56 566.636 378.934 566.228 379.155V379.631C566.891 379.852 567.333 380.362 567.333 381.365C567.333 383.065 565.633 384.221 563.134 384.221C560.21 384.221 558.799 383.065 558.612 381.076H561.298C561.451 381.688 562.131 381.892 562.947 381.892C563.831 381.892 564.375 381.654 564.375 381.127C564.375 380.651 563.984 380.498 563.253 380.498H561.876V378.628H563.168C563.848 378.628 564.188 378.407 564.188 377.965ZM573.091 374.939C575.59 374.939 577.307 375.823 577.307 378.424V384H574.604V383.32H574.128C573.601 383.915 572.938 384.221 571.799 384.221C569.844 384.221 568.705 382.81 568.705 381.246C568.705 379.869 569.742 378.305 572.428 378.305H574.468V378.152C574.468 377.319 574.009 377.03 573.261 377.03C572.513 377.03 572.156 377.319 572.088 377.795H569.164C569.215 376.078 570.83 374.939 573.091 374.939ZM574.468 380.515V379.988H573.04C572.224 379.988 571.663 380.345 571.663 381.008C571.663 381.688 572.122 382.045 572.921 382.045C573.89 382.045 574.468 381.382 574.468 380.515ZM584.275 384V375.16H591.738V377.574H587.233V384H584.275ZM597.197 374.939C599.696 374.939 601.413 375.823 601.413 378.424V384H598.71V383.32H598.234C597.707 383.915 597.044 384.221 595.905 384.221C593.95 384.221 592.811 382.81 592.811 381.246C592.811 379.869 593.848 378.305 596.534 378.305H598.574V378.152C598.574 377.319 598.115 377.03 597.367 377.03C596.619 377.03 596.262 377.319 596.194 377.795H593.27C593.321 376.078 594.936 374.939 597.197 374.939ZM598.574 380.515V379.988H597.146C596.33 379.988 595.769 380.345 595.769 381.008C595.769 381.688 596.228 382.045 597.027 382.045C597.996 382.045 598.574 381.382 598.574 380.515ZM608.664 377.965C608.664 377.54 608.205 377.268 607.406 377.268C606.59 377.268 606.114 377.557 606.046 378.033H603.377C603.564 375.891 605.366 374.939 607.644 374.939C610.058 374.939 611.571 376.01 611.571 377.523C611.571 378.56 611.112 378.934 610.704 379.155V379.631C611.367 379.852 611.809 380.362 611.809 381.365C611.809 383.065 610.109 384.221 607.61 384.221C604.686 384.221 603.275 383.065 603.088 381.076H605.774C605.927 381.688 606.607 381.892 607.423 381.892C608.307 381.892 608.851 381.654 608.851 381.127C608.851 380.651 608.46 380.498 607.729 380.498H606.352V378.628H607.644C608.324 378.628 608.664 378.407 608.664 377.965ZM618.009 374.939C620.848 374.939 622.718 376.724 622.718 379.58C622.718 382.436 620.848 384.221 618.009 384.221C615.187 384.221 613.283 382.436 613.283 379.58C613.283 376.724 615.187 374.939 618.009 374.939ZM618.009 381.807C619.233 381.807 619.76 380.821 619.76 379.58C619.76 378.356 619.233 377.353 618.009 377.353C616.768 377.353 616.241 378.356 616.241 379.58C616.241 380.821 616.768 381.807 618.009 381.807ZM633.457 384H630.499V380.668H627.541V384H624.583V375.16H627.541V378.254H630.499V375.16H633.457V384ZM640.056 374.939C642.895 374.939 644.765 376.724 644.765 379.58C644.765 382.436 642.895 384.221 640.056 384.221C637.234 384.221 635.33 382.436 635.33 379.58C635.33 376.724 637.234 374.939 640.056 374.939ZM640.056 381.807C641.28 381.807 641.807 380.821 641.807 379.58C641.807 378.356 641.28 377.353 640.056 377.353C638.815 377.353 638.288 378.356 638.288 379.58C638.288 380.821 638.815 381.807 640.056 381.807ZM654.263 379.24L653.243 381.535H650.999L649.979 379.24H649.503V384H646.63V375.16H650.319L651.883 378.696H652.359L653.923 375.16H657.612V384H654.739V379.24H654.263Z" fill="black"/>
<path d="M665.338 176.806C664.87 176.366 664.562 175.938 664.407 175.534L675.74 155.963L684.31 158.067L685.288 180.608C684.346 181.2 682.765 181.504 680.785 181.509C678.68 181.516 676.227 181.186 673.855 180.612C671.482 180.038 669.214 179.226 667.473 178.282C666.603 177.81 665.877 177.313 665.338 176.806Z" fill="black" stroke="black" stroke-width="0.999954"/>
<path d="M694.255 169.424L684.979 175.169L684.615 168.984L691.342 167.257L694.255 169.424Z" fill="black" stroke="black" stroke-width="0.999954"/>
<ellipse cx="675.752" cy="160.673" rx="1.22189" ry="1.22176" transform="rotate(13.7955 675.752 160.673)" fill="#F5F5F5"/>
<path d="M685.214 157.258L686.372 181.674" stroke="#F5F5F5" stroke-width="0.999954"/>
<path d="M675.236 157.084L675.081 157.009C670.233 154.672 664.998 159.407 666.838 164.465L668.823 169.921" stroke="black" stroke-width="0.999954"/>
<path d="M675.877 156.257L676.624 151.08C676.797 149.882 678.344 149.509 679.044 150.496L684.323 157.943" stroke="black" stroke-width="0.999954"/>
<path d="M710.107 171.345C710.001 169.697 709.482 168.175 708.656 166.873M693.425 165.785C695.033 163.905 697.37 162.651 700.034 162.481C703.054 162.288 705.834 163.531 707.708 165.622" stroke="black" stroke-width="0.999954"/>
<path d="M702.648 170.256C702.521 168.258 700.798 166.742 698.8 166.87C697.782 166.935 696.889 167.414 696.275 168.132" stroke="black" stroke-width="0.999954"/>
<path d="M706.34 170.771C706.111 167.182 703.016 164.458 699.427 164.687M694.891 166.955C695.608 166.116 696.537 165.459 697.601 165.07" stroke="black" stroke-width="0.999954"/>
<path d="M165.824 168.591L138.061 170.847C137.937 170.857 137.892 171.015 137.992 171.089L150.802 180.524C150.83 180.544 150.864 180.553 150.898 180.549L164.686 178.865C164.747 178.858 164.796 178.809 164.803 178.747L165.968 168.741C165.978 168.657 165.908 168.585 165.824 168.591Z" fill="black" stroke="black" stroke-width="0.999996"/>
<path d="M165.912 168.594L171.183 163.172H174.832M164.786 178.754L165.524 185.664C165.655 186.889 164.204 187.629 163.289 186.803L155.862 180.093" stroke="black" stroke-width="0.999996"/>
<path d="M145.307 182.653C145.307 186.189 142.44 189.056 138.903 189.056C135.367 189.056 132.5 186.189 132.5 182.653C132.5 179.117 135.367 176.25 138.903 176.25C142.44 176.25 145.307 179.117 145.307 182.653Z" fill="black" stroke="black" stroke-width="0.999996"/>
<path d="M137.98 170.798C137.98 166.52 141.884 165.264 144.193 165.606C144.4 165.583 144.605 165.572 144.807 165.574" stroke="black" stroke-width="0.999996"/>
<path d="M153.158 161.438C154.061 160.549 155.301 160 156.668 160C158.952 160 160.879 161.53 161.479 163.621" stroke="black" stroke-width="0.999996"/>
<path d="M161.032 163.281C163.417 163.281 165.35 165.215 165.35 167.6C165.35 167.921 165.315 168.234 165.249 168.535" stroke="black" stroke-width="0.999996"/>
<path d="M144.322 165.689C144.322 162.625 146.806 160.141 149.871 160.141C151.335 160.141 152.666 160.707 153.657 161.633" stroke="black" stroke-width="0.999996"/>
<ellipse cx="138.903" cy="182.656" rx="2.4298" ry="2.42973" fill="#F5F5F5"/>
<path d="M219.83 169.758L230.132 175.138L226.993 181.15C225.507 183.995 221.997 185.097 219.152 183.611V183.611C216.307 182.125 215.205 178.615 216.69 175.77L219.83 169.758Z" fill="black"/>
<rect x="233.015" y="155.311" width="1.62597" height="18.4957" transform="rotate(27.5726 233.015 155.311)" fill="black" stroke="black" stroke-width="1.00002"/>
<path d="M233.08 147.538L240.794 151.566L240.513 152.106C239.4 154.236 236.772 155.061 234.642 153.949C232.511 152.836 231.686 150.208 232.799 148.078L233.08 147.538Z" stroke="black" stroke-width="1.00002"/>
<path d="M234.383 177.355L228.591 188.448" stroke="black" stroke-width="1.00002"/>
<path d="M236.74 178.586L230.947 189.678" stroke="black" stroke-width="1.00002"/>
<path d="M239.065 179.895L233.273 190.987" stroke="black" stroke-width="1.00002"/>
<path d="M235.238 192.014L239.082 184.653C240.178 182.553 239.365 179.962 237.265 178.866L236.005 178.208C233.905 177.111 231.314 177.925 230.218 180.024L226.374 187.386" stroke="black" stroke-width="1.00002"/>
<rect x="244.772" y="161.448" width="1.62597" height="18.4957" transform="rotate(27.5726 244.772 161.448)" fill="black" stroke="black" stroke-width="1.00002"/>
<path d="M244.838 153.675L252.552 157.703L252.27 158.242C251.158 160.372 248.53 161.198 246.399 160.085C244.269 158.973 243.444 156.344 244.556 154.214L244.838 153.675Z" stroke="black" stroke-width="1.00002"/>
<path d="M563.027 171.18L558.933 175.062L561.917 176.112L563.538 179.071V182.595L584.956 182.298L582.924 180.169C582.785 177.666 582.458 176.048 583.509 173.521L580.52 171.18H563.027Z" fill="black"/>
<path d="M579.38 173.107L598.646 147H604.016" stroke="black" stroke-width="0.999975"/>
<path d="M564.127 180.407C564.127 183.342 561.748 185.721 558.814 185.721C555.879 185.721 553.5 183.342 553.5 180.407C553.5 177.473 555.879 175.094 558.814 175.094C561.748 175.094 564.127 177.473 564.127 180.407Z" stroke="black" stroke-width="0.999975"/>
<path d="M599.64 177.175C599.64 181.897 595.811 185.726 591.089 185.726C586.366 185.726 582.538 181.897 582.538 177.175C582.538 172.453 586.366 168.625 591.089 168.625C595.811 168.625 599.64 172.453 599.64 177.175Z" stroke="black" stroke-width="0.999975"/>
<path d="M563.43 169.59C563.593 168.284 564.387 167.079 565.651 166.154C567.074 165.113 569.064 164.453 571.284 164.453C573.505 164.453 575.495 165.113 576.918 166.154C578.181 167.079 578.976 168.284 579.138 169.59H563.43Z" fill="black" stroke="black" stroke-width="0.999975"/>
<path d="M560.715 180.41C560.715 181.46 559.864 182.312 558.813 182.312C557.763 182.312 556.911 181.46 556.911 180.41C556.911 179.359 557.763 178.508 558.813 178.508C559.864 178.508 560.715 179.359 560.715 180.41Z" stroke="black" stroke-width="0.999975"/>
<path d="M592.992 177.175C592.992 178.226 592.14 179.077 591.09 179.077C590.039 179.077 589.187 178.226 589.187 177.175C589.187 176.125 590.039 175.273 591.09 175.273C592.14 175.273 592.992 176.125 592.992 177.175Z" stroke="black" stroke-width="0.999975"/>
<line x1="169" y1="175" x2="210" y2="175" stroke="black" stroke-width="2"/>
<line x1="249" y1="175" x2="294" y2="175" stroke="black" stroke-width="2"/>
<line x1="342" y1="175" x2="374" y2="175" stroke="black" stroke-width="2"/>
<line x1="488" y1="175" x2="545" y2="175" stroke="black" stroke-width="2"/>
<line x1="606" y1="175" x2="657" y2="175" stroke="black" stroke-width="2"/>
<line x1="707" y1="175" x2="768" y2="175" stroke="black" stroke-width="2"/>
<line x1="380" y1="175" x2="484" y2="175" stroke="black" stroke-width="4" stroke-dasharray="13 8"/>
<line x1="98" y1="175" x2="132" y2="175" stroke="black" stroke-width="2"/>
<path d="M133.183 201.718H140.619V211H139.449V202.784H134.353V211H133.183V201.718ZM146.208 205.241C144.752 205.241 144.154 206.437 144.154 207.724C144.154 209.011 144.752 210.207 146.208 210.207C147.521 210.207 148.223 209.18 148.223 207.724C148.223 206.268 147.521 205.241 146.208 205.241ZM143.062 204.448H144.128V205.15H144.414C144.778 204.695 145.415 204.279 146.455 204.279C148.262 204.279 149.328 205.787 149.328 207.724C149.328 209.7 148.262 211.169 146.455 211.169C145.415 211.169 144.804 210.766 144.453 210.298H144.167V213.6H143.062V204.448ZM152.815 211H151.255V204.448H152.334V209.518H152.62L155.493 204.448H157.105V211H156.026V205.93H155.74L152.815 211ZM164.05 207.386V207.672C164.661 207.828 165.116 208.361 165.116 209.206C165.116 210.402 164.297 211 162.802 211H159.435V204.448H162.685C163.998 204.448 164.752 205.059 164.752 206.099C164.752 206.736 164.414 207.191 164.05 207.386ZM160.527 210.064H162.737C163.686 210.064 164.011 209.648 164.011 209.089C164.011 208.53 163.686 208.101 162.737 208.101H160.527V210.064ZM160.527 205.384V207.165H162.581C163.374 207.165 163.647 206.749 163.647 206.281C163.647 205.774 163.374 205.384 162.581 205.384H160.527ZM169.853 204.279C171.894 204.279 173.077 205.787 173.077 207.724C173.077 209.661 171.894 211.169 169.853 211.169C167.799 211.169 166.629 209.661 166.629 207.724C166.629 205.787 167.799 204.279 169.853 204.279ZM169.853 210.207C171.296 210.207 171.972 209.011 171.972 207.724C171.972 206.437 171.296 205.241 169.853 205.241C168.397 205.241 167.734 206.437 167.734 207.724C167.734 209.011 168.397 210.207 169.853 210.207ZM178.753 206.242C178.753 205.579 178.155 205.241 177.31 205.241C176.374 205.241 175.88 205.54 175.724 206.255H174.671C174.788 205.007 175.815 204.279 177.336 204.279C178.961 204.279 179.845 205.111 179.845 206.099C179.845 206.827 179.52 207.282 179.143 207.425V207.711C179.624 207.854 180.079 208.296 180.079 209.193C180.079 210.272 179.13 211.169 177.362 211.169C175.555 211.169 174.606 210.376 174.411 209.141H175.477C175.724 209.96 176.465 210.207 177.362 210.207C178.298 210.207 178.974 209.869 178.974 209.154C178.974 208.517 178.61 208.14 177.531 208.14H176.374V207.178H177.479C178.415 207.178 178.753 206.749 178.753 206.242ZM136.823 223.242C136.823 222.579 136.225 222.241 135.38 222.241C134.444 222.241 133.95 222.54 133.794 223.255H132.741C132.858 222.007 133.885 221.279 135.406 221.279C137.031 221.279 137.915 222.111 137.915 223.099C137.915 223.827 137.59 224.282 137.213 224.425V224.711C137.694 224.854 138.149 225.296 138.149 226.193C138.149 227.272 137.2 228.169 135.432 228.169C133.625 228.169 132.676 227.376 132.481 226.141H133.547C133.794 226.96 134.535 227.207 135.432 227.207C136.368 227.207 137.044 226.869 137.044 226.154C137.044 225.517 136.68 225.14 135.601 225.14H134.444V224.178H135.549C136.485 224.178 136.823 223.749 136.823 223.242ZM145.797 224.334V224.711H140.805C140.844 226.271 141.546 227.207 142.898 227.207C143.821 227.207 144.367 226.817 144.562 226.193H145.68C145.472 227.311 144.523 228.169 142.898 228.169C140.857 228.169 139.713 226.674 139.713 224.659C139.713 222.644 140.883 221.279 142.872 221.279C144.822 221.279 145.758 222.722 145.797 224.334ZM142.846 222.241C141.663 222.241 141.013 222.956 140.87 223.788H144.653C144.588 222.956 143.951 222.241 142.846 222.241ZM147.713 228V221.448H149.468L151.08 224.438H151.366L152.978 221.448H154.707V228H153.628V222.735H153.342L151.821 225.543H150.599L149.078 222.735H148.792V228H147.713ZM156.295 228V226.96H156.516C157.4 226.96 157.803 226.31 157.803 223.983V221.448H162.821V228H161.703V222.41H158.83V224.009C158.83 227.025 158.128 228 156.516 228H156.295ZM166.7 228H165.14V221.448H166.219V226.518H166.505L169.378 221.448H170.99V228H169.911V222.93H169.625L166.7 228Z" fill="black"/>
<path d="M70.986 183.908C70.986 185.012 72.3388 185.793 73.2954 185.241L88.6766 176.361C89.6332 175.808 89.6332 174.246 88.6766 173.694L73.2954 164.814C72.3388 164.261 70.986 165.042 70.986 166.147V183.908ZM32.3228 177.027H72.986V173.027H32.3228V177.027Z" fill="black"/>
<path d="M213.383 204.149C213.383 203.148 212.512 202.615 211.368 202.615C210.068 202.615 209.405 203.148 209.197 204.071H208.001C208.209 202.524 209.444 201.549 211.368 201.549C213.487 201.549 214.566 202.68 214.566 204.006C214.566 205.046 214.124 205.592 213.591 205.891V206.177C214.332 206.489 214.93 207.1 214.93 208.387C214.93 209.856 213.721 211.169 211.433 211.169C209.145 211.169 207.884 210.103 207.611 208.452H208.833C209.132 209.557 210.055 210.103 211.446 210.103C212.811 210.103 213.734 209.453 213.734 208.361C213.734 207.373 213.175 206.697 211.615 206.697H210.133V205.631H211.628C212.941 205.631 213.383 204.929 213.383 204.149ZM221.003 211V210.311H220.717C220.314 210.818 219.612 211.169 218.676 211.169C217.168 211.169 216.323 210.155 216.323 209.037C216.323 207.984 217.012 206.866 218.832 206.866H220.964V206.606C220.964 205.813 220.509 205.241 219.365 205.241C218.39 205.241 217.896 205.618 217.844 206.19H216.739C216.83 204.981 217.87 204.279 219.339 204.279C220.99 204.279 222.043 205.072 222.043 206.541V211H221.003ZM218.949 210.207C220.041 210.207 220.964 209.388 220.964 208.348V207.75H219.001C217.922 207.75 217.428 208.218 217.428 208.998C217.428 209.739 217.974 210.207 218.949 210.207ZM228.695 209.024H229.8C229.553 210.311 228.565 211.169 227.044 211.169C225.003 211.169 223.859 209.661 223.859 207.724C223.859 205.748 225.003 204.279 227.044 204.279C228.604 204.279 229.54 205.137 229.761 206.346H228.656C228.448 205.683 227.941 205.241 227.044 205.241C225.562 205.241 224.964 206.398 224.964 207.698C224.964 209.011 225.575 210.207 227.044 210.207C227.98 210.207 228.526 209.752 228.695 209.024ZM237.323 207.334V207.711H232.331C232.37 209.271 233.072 210.207 234.424 210.207C235.347 210.207 235.893 209.817 236.088 209.193H237.206C236.998 210.311 236.049 211.169 234.424 211.169C232.383 211.169 231.239 209.674 231.239 207.659C231.239 205.644 232.409 204.279 234.398 204.279C236.348 204.279 237.284 205.722 237.323 207.334ZM234.372 205.241C233.189 205.241 232.539 205.956 232.396 206.788H236.179C236.114 205.956 235.477 205.241 234.372 205.241ZM240.799 211H239.239V204.448H240.318V209.518H240.604L243.477 204.448H245.089V211H244.01V205.93H243.724L240.799 211ZM252.034 207.386V207.672C252.645 207.828 253.1 208.361 253.1 209.206C253.1 210.402 252.281 211 250.786 211H247.419V204.448H250.669C251.982 204.448 252.736 205.059 252.736 206.099C252.736 206.736 252.398 207.191 252.034 207.386ZM248.511 210.064H250.721C251.67 210.064 251.995 209.648 251.995 209.089C251.995 208.53 251.67 208.101 250.721 208.101H248.511V210.064ZM248.511 205.384V207.165H250.565C251.358 207.165 251.631 206.749 251.631 206.281C251.631 205.774 251.358 205.384 250.565 205.384H248.511ZM259.188 211V210.311H258.902C258.499 210.818 257.797 211.169 256.861 211.169C255.353 211.169 254.508 210.155 254.508 209.037C254.508 207.984 255.197 206.866 257.017 206.866H259.149V206.606C259.149 205.813 258.694 205.241 257.55 205.241C256.575 205.241 256.081 205.618 256.029 206.19H254.924C255.015 204.981 256.055 204.279 257.524 204.279C259.175 204.279 260.228 205.072 260.228 206.541V211H259.188ZM257.134 210.207C258.226 210.207 259.149 209.388 259.149 208.348V207.75H257.186C256.107 207.75 255.613 208.218 255.613 208.998C255.613 209.739 256.159 210.207 257.134 210.207ZM268.284 211H267.179V208.114H263.552V211H262.447V204.448H263.552V207.152H267.179V204.448H268.284V211ZM272.174 211H270.614V204.448H271.693V209.518H271.979L274.852 204.448H276.464V211H275.385V205.93H275.099L272.174 211ZM284.476 207.334V207.711H279.484C279.523 209.271 280.225 210.207 281.577 210.207C282.5 210.207 283.046 209.817 283.241 209.193H284.359C284.151 210.311 283.202 211.169 281.577 211.169C279.536 211.169 278.392 209.674 278.392 207.659C278.392 205.644 279.562 204.279 281.551 204.279C283.501 204.279 284.437 205.722 284.476 207.334ZM281.525 205.241C280.342 205.241 279.692 205.956 279.549 206.788H283.332C283.267 205.956 282.63 205.241 281.525 205.241ZM208.066 228V221.448H212.98V222.41H209.171V228H208.066ZM218.629 228V227.311H218.343C217.94 227.818 217.238 228.169 216.302 228.169C214.794 228.169 213.949 227.155 213.949 226.037C213.949 224.984 214.638 223.866 216.458 223.866H218.59V223.606C218.59 222.813 218.135 222.241 216.991 222.241C216.016 222.241 215.522 222.618 215.47 223.19H214.365C214.456 221.981 215.496 221.279 216.965 221.279C218.616 221.279 219.669 222.072 219.669 223.541V228H218.629ZM216.575 227.207C217.667 227.207 218.59 226.388 218.59 225.348V224.75H216.627C215.548 224.75 215.054 225.218 215.054 225.998C215.054 226.739 215.6 227.207 216.575 227.207ZM225.645 223.242C225.645 222.579 225.047 222.241 224.202 222.241C223.266 222.241 222.772 222.54 222.616 223.255H221.563C221.68 222.007 222.707 221.279 224.228 221.279C225.853 221.279 226.737 222.111 226.737 223.099C226.737 223.827 226.412 224.282 226.035 224.425V224.711C226.516 224.854 226.971 225.296 226.971 226.193C226.971 227.272 226.022 228.169 224.254 228.169C222.447 228.169 221.498 227.376 221.303 226.141H222.369C222.616 226.96 223.357 227.207 224.254 227.207C225.19 227.207 225.866 226.869 225.866 226.154C225.866 225.517 225.502 225.14 224.423 225.14H223.266V224.178H224.371C225.307 224.178 225.645 223.749 225.645 223.242ZM231.759 221.279C233.8 221.279 234.983 222.787 234.983 224.724C234.983 226.661 233.8 228.169 231.759 228.169C229.705 228.169 228.535 226.661 228.535 224.724C228.535 222.787 229.705 221.279 231.759 221.279ZM231.759 227.207C233.202 227.207 233.878 226.011 233.878 224.724C233.878 223.437 233.202 222.241 231.759 222.241C230.303 222.241 229.64 223.437 229.64 224.724C229.64 226.011 230.303 227.207 231.759 227.207ZM242.74 228H241.635V225.114H238.008V228H236.903V221.448H238.008V224.152H241.635V221.448H242.74V228ZM249.243 228V227.311H248.957C248.554 227.818 247.852 228.169 246.916 228.169C245.408 228.169 244.563 227.155 244.563 226.037C244.563 224.984 245.252 223.866 247.072 223.866H249.204V223.606C249.204 222.813 248.749 222.241 247.605 222.241C246.63 222.241 246.136 222.618 246.084 223.19H244.979C245.07 221.981 246.11 221.279 247.579 221.279C249.23 221.279 250.283 222.072 250.283 223.541V228H249.243ZM247.189 227.207C248.281 227.207 249.204 226.388 249.204 225.348V224.75H247.241C246.162 224.75 245.668 225.218 245.668 225.998C245.668 226.739 246.214 227.207 247.189 227.207Z" fill="black"/>
<path d="M185.663 79.914C189.569 79.914 191.657 82.884 191.657 86.574C191.657 90.264 189.569 93.234 185.663 93.234C181.739 93.234 179.669 90.264 179.669 86.574C179.669 82.884 181.739 79.914 185.663 79.914ZM185.663 91.758C188.723 91.758 190.019 89.256 190.019 86.574C190.019 83.892 188.723 81.39 185.663 81.39C182.603 81.39 181.307 83.892 181.307 86.574C181.307 89.256 182.603 91.758 185.663 91.758ZM196.291 80.148H206.587V93H204.967V81.624H197.911V93H196.291V80.148ZM213.482 91.524H221.096V93H211.862V80.148H220.808V81.624H213.482V85.602H219.386V87.078H213.482V91.524ZM225.604 80.148H231.04C233.848 80.148 235.396 81.588 235.396 83.982C235.396 86.412 233.848 87.852 231.04 87.852H227.224V93H225.604V80.148ZM227.224 86.412H230.77C232.966 86.412 233.758 85.494 233.758 84C233.758 82.506 232.966 81.588 230.77 81.588H227.224V86.412ZM247.565 93L246.233 89.058H240.599L239.267 93H237.611L242.057 80.148H244.793L249.257 93H247.565ZM243.047 81.804L241.085 87.582H245.729L243.767 81.804H243.047ZM263.704 96.15V93H253.246V80.148H254.866V91.524H261.832V80.148H263.452V91.524H265.306V96.15H263.704ZM269.432 80.148H271.016V91.038H271.412L277.388 80.148H279.926V93H278.342V82.11H277.946L271.97 93H269.432V80.148ZM285.196 80.148H286.78V91.038H287.176L293.152 80.148H295.69V93H294.106V82.11H293.71L287.734 93H285.196V80.148ZM158.214 105.016V105.412C159.294 105.916 160.014 107.068 160.014 108.382C160.014 110.434 158.592 112 155.658 112H149.916V99.148H155.514C158.232 99.148 159.618 100.642 159.618 102.406C159.618 103.558 159.15 104.512 158.214 105.016ZM151.536 100.588V104.602H155.478C156.9 104.602 157.98 104.134 157.98 102.55C157.98 101.092 156.738 100.588 155.442 100.588H151.536ZM151.536 110.56H155.55C157.008 110.56 158.376 110.038 158.376 108.256C158.376 106.6 157.08 106.024 155.568 106.024H151.536V110.56ZM173.339 99.148H174.959V112H173.339V106.132H166.157V112H164.537V99.148H166.157V104.62H173.339V99.148ZM184.227 105.898H184.731L187.953 99.148H189.645L183.507 112H181.833L183.669 108.148L178.917 99.148H180.663L184.227 105.898ZM202.458 99.148V100.588H198.246V112H196.626V100.588H192.378V99.148H202.458ZM206.432 99.148H211.868C214.676 99.148 216.224 100.588 216.224 102.982C216.224 105.412 214.676 106.852 211.868 106.852H208.052V112H206.432V99.148ZM208.052 105.412H211.598C213.794 105.412 214.586 104.494 214.586 103C214.586 101.506 213.794 100.588 211.598 100.588H208.052V105.412ZM220.789 99.148H222.373V110.038H222.769L228.745 99.148H231.283V112H229.699V101.11H229.303L223.327 112H220.789V99.148ZM251.432 99.148V100.588H247.22V112H245.6V100.588H241.352V99.148H251.432ZM260.471 98.914C264.377 98.914 266.465 101.884 266.465 105.574C266.465 109.264 264.377 112.234 260.471 112.234C256.547 112.234 254.477 109.264 254.477 105.574C254.477 101.884 256.547 98.914 260.471 98.914ZM260.471 110.758C263.531 110.758 264.827 108.256 264.827 105.574C264.827 102.892 263.531 100.39 260.471 100.39C257.411 100.39 256.115 102.892 256.115 105.574C256.115 108.256 257.411 110.758 260.471 110.758ZM270.506 99.148H272.126V102.82C272.126 104.08 272.144 105.394 275.366 105.394C276.464 105.394 277.526 105.25 278.444 105.034V99.148H280.064V112H278.444V106.528C277.454 106.744 276.158 106.87 275.168 106.87C270.686 106.87 270.506 104.8 270.506 102.82V99.148ZM285.334 112V99.148H286.954V104.638H290.842L293.416 99.148H295.126L292.246 105.394L295.288 112H293.578L290.842 106.114H286.954V112H285.334ZM299.516 99.148H301.1V110.038H301.496L307.472 99.148H310.01V112H308.426V101.11H308.03L302.054 112H299.516V99.148ZM321.713 112V110.596H324.701V101.056H324.341L321.695 102.838V101.182L324.323 99.4H326.285V110.596H329.039V112H321.713Z" fill="black"/>
<path d="M571.663 79.914C575.569 79.914 577.657 82.884 577.657 86.574C577.657 90.264 575.569 93.234 571.663 93.234C567.739 93.234 565.669 90.264 565.669 86.574C565.669 82.884 567.739 79.914 571.663 79.914ZM571.663 91.758C574.723 91.758 576.019 89.256 576.019 86.574C576.019 83.892 574.723 81.39 571.663 81.39C568.603 81.39 567.307 83.892 567.307 86.574C567.307 89.256 568.603 91.758 571.663 91.758ZM582.291 80.148H592.587V93H590.967V81.624H583.911V93H582.291V80.148ZM599.482 91.524H607.096V93H597.862V80.148H606.808V81.624H599.482V85.602H605.386V87.078H599.482V91.524ZM611.604 80.148H617.04C619.848 80.148 621.396 81.588 621.396 83.982C621.396 86.412 619.848 87.852 617.04 87.852H613.224V93H611.604V80.148ZM613.224 86.412H616.77C618.966 86.412 619.758 85.494 619.758 84C619.758 82.506 618.966 81.588 616.77 81.588H613.224V86.412ZM633.565 93L632.233 89.058H626.599L625.267 93H623.611L628.057 80.148H630.793L635.257 93H633.565ZM629.047 81.804L627.085 87.582H631.729L629.767 81.804H629.047ZM649.704 96.15V93H639.246V80.148H640.866V91.524H647.832V80.148H649.452V91.524H651.306V96.15H649.704ZM655.432 80.148H657.016V91.038H657.412L663.388 80.148H665.926V93H664.342V82.11H663.946L657.97 93H655.432V80.148ZM671.196 80.148H672.78V91.038H673.176L679.152 80.148H681.69V93H680.106V82.11H679.71L673.734 93H671.196V80.148ZM543.511 105.016V105.412C544.591 105.916 545.311 107.068 545.311 108.382C545.311 110.434 543.889 112 540.955 112H535.213V99.148H540.811C543.529 99.148 544.915 100.642 544.915 102.406C544.915 103.558 544.447 104.512 543.511 105.016ZM536.833 100.588V104.602H540.775C542.197 104.602 543.277 104.134 543.277 102.55C543.277 101.092 542.035 100.588 540.739 100.588H536.833ZM536.833 110.56H540.847C542.305 110.56 543.673 110.038 543.673 108.256C543.673 106.6 542.377 106.024 540.865 106.024H536.833V110.56ZM558.636 99.148H560.256V112H558.636V106.132H551.454V112H549.834V99.148H551.454V104.62H558.636V99.148ZM569.524 105.898H570.028L573.25 99.148H574.942L568.804 112H567.13L568.966 108.148L564.214 99.148H565.96L569.524 105.898ZM587.755 99.148V100.588H583.543V112H581.923V100.588H577.675V99.148H587.755ZM591.729 99.148H597.165C599.973 99.148 601.521 100.588 601.521 102.982C601.521 105.412 599.973 106.852 597.165 106.852H593.349V112H591.729V99.148ZM593.349 105.412H596.895C599.091 105.412 599.883 104.494 599.883 103C599.883 101.506 599.091 100.588 596.895 100.588H593.349V105.412ZM606.086 99.148H607.67V110.038H608.066L614.042 99.148H616.58V112H614.996V101.11H614.6L608.624 112H606.086V99.148ZM636.729 99.148V100.588H632.517V112H630.897V100.588H626.649V99.148H636.729ZM645.768 98.914C649.674 98.914 651.762 101.884 651.762 105.574C651.762 109.264 649.674 112.234 645.768 112.234C641.844 112.234 639.774 109.264 639.774 105.574C639.774 101.884 641.844 98.914 645.768 98.914ZM645.768 110.758C648.828 110.758 650.124 108.256 650.124 105.574C650.124 102.892 648.828 100.39 645.768 100.39C642.708 100.39 641.412 102.892 641.412 105.574C641.412 108.256 642.708 110.758 645.768 110.758ZM655.803 99.148H657.423V102.82C657.423 104.08 657.441 105.394 660.663 105.394C661.761 105.394 662.823 105.25 663.741 105.034V99.148H665.361V112H663.741V106.528C662.751 106.744 661.455 106.87 660.465 106.87C655.983 106.87 655.803 104.8 655.803 102.82V99.148ZM670.631 112V99.148H672.251V104.638H676.139L678.713 99.148H680.423L677.543 105.394L680.585 112H678.875L676.139 106.114H672.251V112H670.631ZM684.813 99.148H686.397V110.038H686.793L692.769 99.148H695.307V112H693.723V101.11H693.327L687.351 112H684.813V99.148ZM708.486 102.874H706.902C707.046 100.354 708.864 99.148 711.096 99.148C713.454 99.148 715.182 100.462 715.182 102.982C715.182 104.692 713.886 106.294 712.392 107.536L709.224 110.2V110.596H715.578V112H706.92V110.218L708.774 108.706C709.782 107.896 710.97 106.888 711.636 106.276C712.5 105.502 713.598 104.476 713.598 102.982C713.598 101.398 712.59 100.552 711.06 100.552C709.638 100.552 708.648 101.29 708.486 102.874Z" fill="black"/>
<path d="M559.449 208.361H560.684C560.307 210.012 559.046 211.169 557.005 211.169C554.236 211.169 552.715 209.115 552.715 206.359C552.715 203.603 554.262 201.549 557.018 201.549C558.903 201.549 560.203 202.55 560.58 204.149H559.345C558.994 203.161 558.305 202.615 557.018 202.615C554.86 202.615 553.898 204.396 553.898 206.359C553.898 208.335 554.847 210.103 557.005 210.103C558.305 210.103 559.15 209.44 559.449 208.361ZM561.916 205.41V204.448H567.558V205.41H565.296V211H564.191V205.41H561.916ZM572.357 205.241C570.901 205.241 570.303 206.437 570.303 207.724C570.303 209.011 570.901 210.207 572.357 210.207C573.67 210.207 574.372 209.18 574.372 207.724C574.372 206.268 573.67 205.241 572.357 205.241ZM569.211 204.448H570.277V205.15H570.563C570.927 204.695 571.564 204.279 572.604 204.279C574.411 204.279 575.477 205.787 575.477 207.724C575.477 209.7 574.411 211.169 572.604 211.169C571.564 211.169 570.953 210.766 570.602 210.298H570.316V213.6H569.211V204.448ZM578.964 211H577.404V204.448H578.483V209.518H578.769L581.642 204.448H583.254V211H582.175V205.93H581.889L578.964 211ZM587.443 208.127L586.182 211H585.025L586.507 207.633L585.116 204.448H586.26L587.443 207.165H589.12V204.448H590.186V207.165H591.863L593.046 204.448H594.19L592.799 207.633L594.294 211H593.124L591.863 208.127H590.186V211H589.12V208.127H587.443ZM600.574 211L599.118 208.114H597.155V211H596.05V204.448H597.155V207.152H599.144L600.509 204.448H601.666L600.067 207.607L601.757 211H600.574ZM607.692 211V210.311H607.406C607.003 210.818 606.301 211.169 605.365 211.169C603.857 211.169 603.012 210.155 603.012 209.037C603.012 207.984 603.701 206.866 605.521 206.866H607.653V206.606C607.653 205.813 607.198 205.241 606.054 205.241C605.079 205.241 604.585 205.618 604.533 206.19H603.428C603.519 204.981 604.559 204.279 606.028 204.279C607.679 204.279 608.732 205.072 608.732 206.541V211H607.692ZM605.638 210.207C606.73 210.207 607.653 209.388 607.653 208.348V207.75H605.69C604.611 207.75 604.117 208.218 604.117 208.998C604.117 209.739 604.663 210.207 605.638 210.207ZM553.066 228V221.448H557.98V222.41H554.171V228H553.066ZM563.629 228V227.311H563.343C562.94 227.818 562.238 228.169 561.302 228.169C559.794 228.169 558.949 227.155 558.949 226.037C558.949 224.984 559.638 223.866 561.458 223.866H563.59V223.606C563.59 222.813 563.135 222.241 561.991 222.241C561.016 222.241 560.522 222.618 560.47 223.19H559.365C559.456 221.981 560.496 221.279 561.965 221.279C563.616 221.279 564.669 222.072 564.669 223.541V228H563.629ZM561.575 227.207C562.667 227.207 563.59 226.388 563.59 225.348V224.75H561.627C560.548 224.75 560.054 225.218 560.054 225.998C560.054 226.739 560.6 227.207 561.575 227.207ZM570.645 223.242C570.645 222.579 570.047 222.241 569.202 222.241C568.266 222.241 567.772 222.54 567.616 223.255H566.563C566.68 222.007 567.707 221.279 569.228 221.279C570.853 221.279 571.737 222.111 571.737 223.099C571.737 223.827 571.412 224.282 571.035 224.425V224.711C571.516 224.854 571.971 225.296 571.971 226.193C571.971 227.272 571.022 228.169 569.254 228.169C567.447 228.169 566.498 227.376 566.303 226.141H567.369C567.616 226.96 568.357 227.207 569.254 227.207C570.19 227.207 570.866 226.869 570.866 226.154C570.866 225.517 570.502 225.14 569.423 225.14H568.266V224.178H569.371C570.307 224.178 570.645 223.749 570.645 223.242ZM576.759 221.279C578.8 221.279 579.983 222.787 579.983 224.724C579.983 226.661 578.8 228.169 576.759 228.169C574.705 228.169 573.535 226.661 573.535 224.724C573.535 222.787 574.705 221.279 576.759 221.279ZM576.759 227.207C578.202 227.207 578.878 226.011 578.878 224.724C578.878 223.437 578.202 222.241 576.759 222.241C575.303 222.241 574.64 223.437 574.64 224.724C574.64 226.011 575.303 227.207 576.759 227.207ZM587.74 228H586.635V225.114H583.008V228H581.903V221.448H583.008V224.152H586.635V221.448H587.74V228ZM594.243 228V227.311H593.957C593.554 227.818 592.852 228.169 591.916 228.169C590.408 228.169 589.563 227.155 589.563 226.037C589.563 224.984 590.252 223.866 592.072 223.866H594.204V223.606C594.204 222.813 593.749 222.241 592.605 222.241C591.63 222.241 591.136 222.618 591.084 223.19H589.979C590.07 221.981 591.11 221.279 592.579 221.279C594.23 221.279 595.283 222.072 595.283 223.541V228H594.243ZM592.189 227.207C593.281 227.207 594.204 226.388 594.204 225.348V224.75H592.241C591.162 224.75 590.668 225.218 590.668 225.998C590.668 226.739 591.214 227.207 592.189 227.207Z" fill="black"/>
<path d="M295.183 201.718H302.619V211H301.449V202.784H296.353V211H295.183V201.718ZM307.883 204.279C309.924 204.279 311.107 205.787 311.107 207.724C311.107 209.661 309.924 211.169 307.883 211.169C305.829 211.169 304.659 209.661 304.659 207.724C304.659 205.787 305.829 204.279 307.883 204.279ZM307.883 210.207C309.326 210.207 310.002 209.011 310.002 207.724C310.002 206.437 309.326 205.241 307.883 205.241C306.427 205.241 305.764 206.437 305.764 207.724C305.764 209.011 306.427 210.207 307.883 210.207ZM312.285 211V209.96H312.506C313.39 209.96 313.793 209.31 313.793 206.983V204.448H318.811V211H317.693V205.41H314.82V207.009C314.82 210.025 314.118 211 312.506 211H312.285ZM322.69 211H321.13V204.448H322.209V209.518H322.495L325.368 204.448H326.98V211H325.901V205.93H325.615L322.69 211ZM333.926 207.386V207.672C334.537 207.828 334.992 208.361 334.992 209.206C334.992 210.402 334.173 211 332.678 211H329.311V204.448H332.561C333.874 204.448 334.628 205.059 334.628 206.099C334.628 206.736 334.29 207.191 333.926 207.386ZM330.403 210.064H332.613C333.562 210.064 333.887 209.648 333.887 209.089C333.887 208.53 333.562 208.101 332.613 208.101H330.403V210.064ZM330.403 205.384V207.165H332.457C333.25 207.165 333.523 206.749 333.523 206.281C333.523 205.774 333.25 205.384 332.457 205.384H330.403Z" fill="black"/>
<path d="M658.183 201.718H665.619V211H664.449V202.784H659.353V211H658.183V201.718ZM670.883 204.279C672.924 204.279 674.107 205.787 674.107 207.724C674.107 209.661 672.924 211.169 670.883 211.169C668.829 211.169 667.659 209.661 667.659 207.724C667.659 205.787 668.829 204.279 670.883 204.279ZM670.883 210.207C672.326 210.207 673.002 209.011 673.002 207.724C673.002 206.437 672.326 205.241 670.883 205.241C669.427 205.241 668.764 206.437 668.764 207.724C668.764 209.011 669.427 210.207 670.883 210.207ZM675.285 211V209.96H675.506C676.39 209.96 676.793 209.31 676.793 206.983V204.448H681.811V211H680.693V205.41H677.82V207.009C677.82 210.025 677.118 211 675.506 211H675.285ZM685.69 211H684.13V204.448H685.209V209.518H685.495L688.368 204.448H689.98V211H688.901V205.93H688.615L685.69 211ZM696.926 207.386V207.672C697.537 207.828 697.992 208.361 697.992 209.206C697.992 210.402 697.173 211 695.678 211H692.311V204.448H695.561C696.874 204.448 697.628 205.059 697.628 206.099C697.628 206.736 697.29 207.191 696.926 207.386ZM693.403 210.064H695.613C696.562 210.064 696.887 209.648 696.887 209.089C696.887 208.53 696.562 208.101 695.613 208.101H693.403V210.064ZM693.403 205.384V207.165H695.457C696.25 207.165 696.523 206.749 696.523 206.281C696.523 205.774 696.25 205.384 695.457 205.384H693.403Z" fill="black"/>
<path d="M804.664 183.88C804.664 184.985 806.016 185.766 806.973 185.214L822.354 176.333C823.311 175.781 823.311 174.219 822.354 173.667L806.973 164.786C806.016 164.234 804.664 165.015 804.664 166.12V183.88ZM766 177H806.664V173H766V177Z" fill="black"/>
<path d="M302.666 177.225C302.183 176.831 301.857 176.438 301.679 176.058L311.384 156.241L319.856 157.706L322.335 179.58C321.459 180.216 319.946 180.617 318.022 180.756C315.973 180.905 313.563 180.75 311.214 180.352C308.864 179.954 306.602 179.318 304.843 178.517C303.964 178.116 303.225 177.681 302.666 177.225Z" fill="black" stroke="black" stroke-width="0.999954"/>
<path d="M330.323 168.08L321.678 174.305L320.904 168.306L327.339 166.167L330.323 168.08Z" fill="black" stroke="black" stroke-width="0.999954"/>
<ellipse cx="311.708" cy="160.82" rx="1.19299" ry="1.19287" transform="rotate(9.81315 311.708 160.82)" fill="#F5F5F5"/>
<path d="M320.692 156.848L323.476 180.55" stroke="#F5F5F5" stroke-width="0.999954"/>
<path d="M310.963 157.355V157.355C306.025 155.386 301.192 160.41 303.352 165.267L305.586 170.294" stroke="black" stroke-width="0.999954"/>
<path d="M311.53 156.507L311.901 151.492C311.99 150.285 313.507 149.806 314.274 150.742L319.87 157.576" stroke="black" stroke-width="0.999954"/>
<path d="M345.892 168.88C345.678 167.283 345.069 165.835 344.176 164.623M329.268 164.596C330.706 162.656 332.897 161.276 335.481 160.93C338.409 160.538 341.201 161.559 343.169 163.469" stroke="black" stroke-width="0.999954"/>
<path d="M338.555 168.321C338.295 166.384 336.514 165.024 334.577 165.284C333.59 165.416 332.753 165.943 332.204 166.685" stroke="black" stroke-width="0.999954"/>
<path d="M342.185 168.578C341.719 165.098 338.519 162.655 335.039 163.121M330.775 165.637C331.416 164.772 332.276 164.069 333.286 163.617" stroke="black" stroke-width="0.999954"/>
</svg>
