<svg width="511" height="134" viewBox="0 0 511 134" fill="none" xmlns="http://www.w3.org/2000/svg">
<rect width="511" height="134" fill="#F5F4F0"/>
<g clip-path="url(#clip0_1178_12463)">
<circle cx="32" cy="40" r="8" fill="black"/>
<path d="M45.309 64V51.862H48.471V56.333H50.919L53.01 51.862H56.189L53.469 57.761L56.342 64H53.163L50.936 59.172H48.471V64H45.309ZM56.9904 64V61.161H57.3134C58.3844 61.161 58.8604 60.685 58.8604 59.053V55.16H66.8674V64H63.9094V57.574H61.5634V59.172C61.5634 62.742 60.1694 64 57.3134 64H56.9904ZM78.0351 54.939C80.7721 54.939 82.6931 56.843 82.6931 59.58C82.6931 62.317 80.7721 64.221 78.0351 64.221C75.6551 64.221 73.9211 62.861 73.4621 60.668H72.1021V64H69.2121V55.16H72.1021V58.254H73.5131C74.0401 56.197 75.7401 54.939 78.0351 54.939ZM77.9841 61.807C79.2081 61.807 79.7351 60.821 79.7351 59.58C79.7351 58.356 79.2081 57.353 77.9841 57.353C76.7431 57.353 76.2161 58.356 76.2161 59.58C76.2161 60.821 76.7431 61.807 77.9841 61.807ZM84.0925 55.16H87.0505V57.778C87.0505 58.322 87.2035 58.866 88.3935 58.866C88.9205 58.866 89.3285 58.798 89.7365 58.713V55.16H92.6945V64H89.7365V61.059C89.0055 61.195 88.0535 61.28 87.3225 61.28C84.4665 61.28 84.0925 59.852 84.0925 58.475V55.16ZM100.552 61.144H103.544C103.153 63.065 101.742 64.221 99.2091 64.221C96.4041 64.221 94.5681 62.487 94.5681 59.58C94.5681 56.69 96.3701 54.939 99.1411 54.939C101.946 54.939 103.612 56.639 103.612 59.291V59.971H97.4921C97.6111 61.178 98.1551 61.807 99.2601 61.807C99.9911 61.807 100.365 61.603 100.552 61.144ZM99.1411 57.047C98.2741 57.047 97.8321 57.455 97.6111 58.203H100.586C100.433 57.438 99.9401 57.047 99.1411 57.047ZM112.677 59.087V59.563C113.544 59.784 114.19 60.413 114.19 61.552C114.19 63.184 113.051 64 111.062 64H105.486V55.16H110.943C112.728 55.16 113.731 55.993 113.731 57.404C113.731 58.271 113.204 58.832 112.677 59.087ZM108.359 62.113H110.093C110.96 62.113 111.232 61.739 111.232 61.212C111.232 60.685 110.96 60.311 110.093 60.311H108.359V62.113ZM108.359 57.03V58.56H109.872C110.552 58.56 110.773 58.203 110.773 57.795C110.773 57.37 110.552 57.03 109.872 57.03H108.359ZM119.953 54.939C122.452 54.939 124.169 55.823 124.169 58.424V64H121.466V63.32H120.99C120.463 63.915 119.8 64.221 118.661 64.221C116.706 64.221 115.567 62.81 115.567 61.246C115.567 59.869 116.604 58.305 119.29 58.305H121.33V58.152C121.33 57.319 120.871 57.03 120.123 57.03C119.375 57.03 119.018 57.319 118.95 57.795H116.026C116.077 56.078 117.692 54.939 119.953 54.939ZM121.33 60.515V59.988H119.902C119.086 59.988 118.525 60.345 118.525 61.008C118.525 61.688 118.984 62.045 119.783 62.045C120.752 62.045 121.33 61.382 121.33 60.515ZM134.445 55.16V64H131.487V61.365H129.889L128.886 64H126.013L127.271 60.736C126.421 60.209 125.996 59.393 125.996 58.288C125.996 56.333 127.373 55.16 129.889 55.16H134.445ZM128.886 58.356C128.886 58.951 129.141 59.291 130.11 59.291H131.487V57.472H130.11C129.141 57.472 128.886 57.829 128.886 58.356ZM44.51 76.574V74.16H53.078V76.574H50.273V83H47.315V76.574H44.51ZM59.0187 73.939C61.8577 73.939 63.7277 75.724 63.7277 78.58C63.7277 81.436 61.8577 83.221 59.0187 83.221C56.1967 83.221 54.2927 81.436 54.2927 78.58C54.2927 75.724 56.1967 73.939 59.0187 73.939ZM59.0187 80.807C60.2427 80.807 60.7697 79.821 60.7697 78.58C60.7697 77.356 60.2427 76.353 59.0187 76.353C57.7777 76.353 57.2507 77.356 57.2507 78.58C57.2507 79.821 57.7777 80.807 59.0187 80.807ZM65.1169 74.16H68.0749V76.778C68.0749 77.322 68.2279 77.866 69.4179 77.866C69.9449 77.866 70.3529 77.798 70.7609 77.713V74.16H73.7189V83H70.7609V80.059C70.0299 80.195 69.0779 80.28 68.3469 80.28C65.4909 80.28 65.1169 78.852 65.1169 77.475V74.16ZM82.2225 83L80.5395 79.651H79.0265V83H76.0685V74.16H79.0265V77.237H80.5735L82.1545 74.16H85.1465L82.9705 78.427L85.2825 83H82.2225ZM90.8003 73.939C93.2993 73.939 95.0163 74.823 95.0163 77.424V83H92.3133V82.32H91.8373C91.3103 82.915 90.6473 83.221 89.5083 83.221C87.5533 83.221 86.4143 81.81 86.4143 80.246C86.4143 78.869 87.4513 77.305 90.1373 77.305H92.1773V77.152C92.1773 76.319 91.7183 76.03 90.9703 76.03C90.2223 76.03 89.8653 76.319 89.7973 76.795H86.8733C86.9243 75.078 88.5393 73.939 90.8003 73.939ZM92.1773 79.515V78.988H90.7493C89.9333 78.988 89.3723 79.345 89.3723 80.008C89.3723 80.688 89.8313 81.045 90.6303 81.045C91.5993 81.045 92.1773 80.382 92.1773 79.515ZM107.288 80.382H109.651V83H101.644V80.382H104.262V74.075H103.786L101.644 75.554V72.596L103.769 71.1H107.288V80.382Z" fill="black"/>
<circle cx="248" cy="40" r="6" fill="black"/>
<path d="M260 40C260 33.3726 254.627 28 248 28C241.373 28 236 33.3726 236 40" stroke="black" stroke-width="2" stroke-linecap="square"/>
<path d="M269.962 61.382V64H260.816V60.906L264.658 58.288C265.678 57.591 266.63 56.894 266.63 55.857C266.63 54.956 266.086 54.48 265.287 54.48C264.488 54.48 263.893 54.905 263.825 55.874H260.799C260.918 53.307 262.55 51.862 265.389 51.862C267.922 51.862 269.673 53.29 269.673 55.823C269.673 58.22 267.293 59.767 265.525 60.906V61.382H269.962Z" fill="black"/>
<path d="M40 39H39V41H40V39ZM40 41H236V39H40V41Z" fill="black"/>
<circle cx="464" cy="40" r="8" fill="black"/>
<path d="M477.19 52.1H485.265V55.092L483.361 56.299V56.775C484.738 57.013 485.962 58.067 485.962 60.073C485.962 62.589 484.007 64.221 481.202 64.221C478.346 64.221 476.51 62.487 476.459 60.209H479.502C479.638 61.11 480.267 61.62 481.219 61.62C482.307 61.62 482.919 60.94 482.919 60.073C482.919 59.121 482.341 58.441 481.202 58.441C480.709 58.441 480.403 58.492 480.08 58.577V56.299L481.984 55.092V54.616H477.19V52.1Z" fill="black"/>
<path d="M456 41H457V39H456V41ZM456 39H260V41H456V39Z" fill="black"/>
</g>
<defs>
<clipPath id="clip0_1178_12463">
<rect x="24" y="24" width="463" height="78" rx="4" fill="white"/>
</clipPath>
</defs>
</svg>
