<svg width="746" height="268" viewBox="0 0 746 268" fill="none" xmlns="http://www.w3.org/2000/svg">
<rect width="746" height="268" fill="#F5F4F0"/>
<g clip-path="url(#clip0_1179_12579)">
<mask id="path-2-inside-1_1179_12579" fill="white">
<path d="M24 24H722V126H24V24Z"/>
</mask>
<path d="M722 124H24V128H722V124Z" fill="#C4C3C0" mask="url(#path-2-inside-1_1179_12579)"/>
<circle cx="82" cy="48" r="8" fill="black"/>
<path d="M95.309 72V59.862H98.471V64.333H100.919L103.01 59.862H106.189L103.469 65.761L106.342 72H103.163L100.936 67.172H98.471V72H95.309ZM106.99 72V69.161H107.313C108.384 69.161 108.86 68.685 108.86 67.053V63.16H116.867V72H113.909V65.574H111.563V67.172C111.563 70.742 110.169 72 107.313 72H106.99ZM128.035 62.939C130.772 62.939 132.693 64.843 132.693 67.58C132.693 70.317 130.772 72.221 128.035 72.221C125.655 72.221 123.921 70.861 123.462 68.668H122.102V72H119.212V63.16H122.102V66.254H123.513C124.04 64.197 125.74 62.939 128.035 62.939ZM127.984 69.807C129.208 69.807 129.735 68.821 129.735 67.58C129.735 66.356 129.208 65.353 127.984 65.353C126.743 65.353 126.216 66.356 126.216 67.58C126.216 68.821 126.743 69.807 127.984 69.807ZM134.093 63.16H137.051V65.778C137.051 66.322 137.204 66.866 138.394 66.866C138.921 66.866 139.329 66.798 139.737 66.713V63.16H142.695V72H139.737V69.059C139.006 69.195 138.054 69.28 137.323 69.28C134.467 69.28 134.093 67.852 134.093 66.475V63.16ZM150.552 69.144H153.544C153.153 71.065 151.742 72.221 149.209 72.221C146.404 72.221 144.568 70.487 144.568 67.58C144.568 64.69 146.37 62.939 149.141 62.939C151.946 62.939 153.612 64.639 153.612 67.291V67.971H147.492C147.611 69.178 148.155 69.807 149.26 69.807C149.991 69.807 150.365 69.603 150.552 69.144ZM149.141 65.047C148.274 65.047 147.832 65.455 147.611 66.203H150.586C150.433 65.438 149.94 65.047 149.141 65.047ZM162.677 67.087V67.563C163.544 67.784 164.19 68.413 164.19 69.552C164.19 71.184 163.051 72 161.062 72H155.486V63.16H160.943C162.728 63.16 163.731 63.993 163.731 65.404C163.731 66.271 163.204 66.832 162.677 67.087ZM158.359 70.113H160.093C160.96 70.113 161.232 69.739 161.232 69.212C161.232 68.685 160.96 68.311 160.093 68.311H158.359V70.113ZM158.359 65.03V66.56H159.872C160.552 66.56 160.773 66.203 160.773 65.795C160.773 65.37 160.552 65.03 159.872 65.03H158.359ZM169.953 62.939C172.452 62.939 174.169 63.823 174.169 66.424V72H171.466V71.32H170.99C170.463 71.915 169.8 72.221 168.661 72.221C166.706 72.221 165.567 70.81 165.567 69.246C165.567 67.869 166.604 66.305 169.29 66.305H171.33V66.152C171.33 65.319 170.871 65.03 170.123 65.03C169.375 65.03 169.018 65.319 168.95 65.795H166.026C166.077 64.078 167.692 62.939 169.953 62.939ZM171.33 68.515V67.988H169.902C169.086 67.988 168.525 68.345 168.525 69.008C168.525 69.688 168.984 70.045 169.783 70.045C170.752 70.045 171.33 69.382 171.33 68.515ZM184.445 63.16V72H181.487V69.365H179.889L178.886 72H176.013L177.271 68.736C176.421 68.209 175.996 67.393 175.996 66.288C175.996 64.333 177.373 63.16 179.889 63.16H184.445ZM178.886 66.356C178.886 66.951 179.141 67.291 180.11 67.291H181.487V65.472H180.11C179.141 65.472 178.886 65.829 178.886 66.356ZM94.51 84.574V82.16H103.078V84.574H100.273V91H97.315V84.574H94.51ZM109.019 81.939C111.858 81.939 113.728 83.724 113.728 86.58C113.728 89.436 111.858 91.221 109.019 91.221C106.197 91.221 104.293 89.436 104.293 86.58C104.293 83.724 106.197 81.939 109.019 81.939ZM109.019 88.807C110.243 88.807 110.77 87.821 110.77 86.58C110.77 85.356 110.243 84.353 109.019 84.353C107.778 84.353 107.251 85.356 107.251 86.58C107.251 87.821 107.778 88.807 109.019 88.807ZM115.117 82.16H118.075V84.778C118.075 85.322 118.228 85.866 119.418 85.866C119.945 85.866 120.353 85.798 120.761 85.713V82.16H123.719V91H120.761V88.059C120.03 88.195 119.078 88.28 118.347 88.28C115.491 88.28 115.117 86.852 115.117 85.475V82.16ZM132.223 91L130.54 87.651H129.027V91H126.069V82.16H129.027V85.237H130.574L132.155 82.16H135.147L132.971 86.427L135.283 91H132.223ZM140.8 81.939C143.299 81.939 145.016 82.823 145.016 85.424V91H142.313V90.32H141.837C141.31 90.915 140.647 91.221 139.508 91.221C137.553 91.221 136.414 89.81 136.414 88.246C136.414 86.869 137.451 85.305 140.137 85.305H142.177V85.152C142.177 84.319 141.718 84.03 140.97 84.03C140.222 84.03 139.865 84.319 139.797 84.795H136.873C136.924 83.078 138.539 81.939 140.8 81.939ZM142.177 87.515V86.988H140.749C139.933 86.988 139.372 87.345 139.372 88.008C139.372 88.688 139.831 89.045 140.63 89.045C141.599 89.045 142.177 88.382 142.177 87.515ZM157.288 88.382H159.651V91H151.644V88.382H154.262V82.075H153.786L151.644 83.554V80.596L153.769 79.1H157.288V88.382Z" fill="black"/>
<circle cx="298" cy="48" r="8" fill="black"/>
<path d="M318.687 67.869H321.934C321.611 70.436 319.69 72.221 316.698 72.221C312.958 72.221 310.782 69.705 310.782 65.931C310.782 62.157 312.958 59.641 316.698 59.641C319.571 59.641 321.424 61.307 321.832 63.619H318.551C318.347 62.82 317.65 62.429 316.698 62.429C314.93 62.429 314.012 63.874 314.012 65.931C314.012 67.971 314.93 69.433 316.698 69.433C317.786 69.433 318.534 68.889 318.687 67.869ZM328.156 62.939C330.995 62.939 332.865 64.724 332.865 67.58C332.865 70.436 330.995 72.221 328.156 72.221C325.334 72.221 323.43 70.436 323.43 67.58C323.43 64.724 325.334 62.939 328.156 62.939ZM328.156 69.807C329.38 69.807 329.907 68.821 329.907 67.58C329.907 66.356 329.38 65.353 328.156 65.353C326.915 65.353 326.388 66.356 326.388 67.58C326.388 68.821 326.915 69.807 328.156 69.807ZM341.922 67.087V67.563C342.789 67.784 343.435 68.413 343.435 69.552C343.435 71.184 342.296 72 340.307 72H334.731V63.16H340.188C341.973 63.16 342.976 63.993 342.976 65.404C342.976 66.271 342.449 66.832 341.922 67.087ZM337.604 70.113H339.338C340.205 70.113 340.477 69.739 340.477 69.212C340.477 68.685 340.205 68.311 339.338 68.311H337.604V70.113ZM337.604 65.03V66.56H339.117C339.797 66.56 340.018 66.203 340.018 65.795C340.018 65.37 339.797 65.03 339.117 65.03H337.604ZM353.022 67.24L352.002 69.535H349.758L348.738 67.24H348.262V72H345.389V63.16H349.078L350.642 66.696H351.118L352.682 63.16H356.371V72H353.498V67.24H353.022ZM364.228 69.144H367.22C366.829 71.065 365.418 72.221 362.885 72.221C360.08 72.221 358.244 70.487 358.244 67.58C358.244 64.69 360.046 62.939 362.817 62.939C365.622 62.939 367.288 64.639 367.288 67.291V67.971H361.168C361.287 69.178 361.831 69.807 362.936 69.807C363.667 69.807 364.041 69.603 364.228 69.144ZM362.817 65.047C361.95 65.047 361.508 65.455 361.287 66.203H364.262C364.109 65.438 363.616 65.047 362.817 65.047ZM374.568 68.838H377.475C377.288 70.844 375.571 72.221 373.259 72.221C370.522 72.221 368.686 70.487 368.686 67.58C368.686 64.707 370.522 62.939 373.259 62.939C375.554 62.939 377.203 64.214 377.39 66.152H374.483C374.33 65.625 373.922 65.353 373.276 65.353C372.069 65.353 371.644 66.373 371.644 67.58C371.644 68.804 372.086 69.807 373.276 69.807C374.007 69.807 374.483 69.45 374.568 68.838ZM378.709 65.574V63.16H387.277V65.574H384.472V72H381.514V65.574H378.709ZM397.842 72H394.884V68.668H391.926V72H388.968V63.16H391.926V66.254H394.884V63.16H397.842V72ZM403.999 62.939C406.498 62.939 408.215 63.823 408.215 66.424V72H405.512V71.32H405.036C404.509 71.915 403.846 72.221 402.707 72.221C400.752 72.221 399.613 70.81 399.613 69.246C399.613 67.869 400.65 66.305 403.336 66.305H405.376V66.152C405.376 65.319 404.917 65.03 404.169 65.03C403.421 65.03 403.064 65.319 402.996 65.795H400.072C400.123 64.078 401.738 62.939 403.999 62.939ZM405.376 68.515V67.988H403.948C403.132 67.988 402.571 68.345 402.571 69.008C402.571 69.688 403.03 70.045 403.829 70.045C404.798 70.045 405.376 69.382 405.376 68.515ZM418.491 63.16V72H415.533V69.365H413.935L412.932 72H410.059L411.317 68.736C410.467 68.209 410.042 67.393 410.042 66.288C410.042 64.333 411.419 63.16 413.935 63.16H418.491ZM412.932 66.356C412.932 66.951 413.187 67.291 414.156 67.291H415.533V65.472H414.156C413.187 65.472 412.932 65.829 412.932 66.356ZM310.51 84.574V82.16H319.078V84.574H316.273V91H313.315V84.574H310.51ZM325.019 81.939C327.858 81.939 329.728 83.724 329.728 86.58C329.728 89.436 327.858 91.221 325.019 91.221C322.197 91.221 320.293 89.436 320.293 86.58C320.293 83.724 322.197 81.939 325.019 81.939ZM325.019 88.807C326.243 88.807 326.77 87.821 326.77 86.58C326.77 85.356 326.243 84.353 325.019 84.353C323.778 84.353 323.251 85.356 323.251 86.58C323.251 87.821 323.778 88.807 325.019 88.807ZM331.117 82.16H334.075V84.778C334.075 85.322 334.228 85.866 335.418 85.866C335.945 85.866 336.353 85.798 336.761 85.713V82.16H339.719V91H336.761V88.059C336.03 88.195 335.078 88.28 334.347 88.28C331.491 88.28 331.117 86.852 331.117 85.475V82.16ZM348.223 91L346.54 87.651H345.027V91H342.069V82.16H345.027V85.237H346.574L348.155 82.16H351.147L348.971 86.427L351.283 91H348.223ZM356.8 81.939C359.299 81.939 361.016 82.823 361.016 85.424V91H358.313V90.32H357.837C357.31 90.915 356.647 91.221 355.508 91.221C353.553 91.221 352.414 89.81 352.414 88.246C352.414 86.869 353.451 85.305 356.137 85.305H358.177V85.152C358.177 84.319 357.718 84.03 356.97 84.03C356.222 84.03 355.865 84.319 355.797 84.795H352.873C352.924 83.078 354.539 81.939 356.8 81.939ZM358.177 87.515V86.988H356.749C355.933 86.988 355.372 87.345 355.372 88.008C355.372 88.688 355.831 89.045 356.63 89.045C357.599 89.045 358.177 88.382 358.177 87.515ZM376.773 88.382V91H367.627V87.906L371.469 85.288C372.489 84.591 373.441 83.894 373.441 82.857C373.441 81.956 372.897 81.48 372.098 81.48C371.299 81.48 370.704 81.905 370.636 82.874H367.61C367.729 80.307 369.361 78.862 372.2 78.862C374.733 78.862 376.484 80.29 376.484 82.823C376.484 85.22 374.104 86.767 372.336 87.906V88.382H376.773ZM381.635 91H378.507V88.042H381.635V91ZM389.557 88.382H391.92V91H383.913V88.382H386.531V82.075H386.055L383.913 83.554V80.596L386.038 79.1H389.557V88.382Z" fill="black"/>
<circle cx="514" cy="48" r="8" fill="black"/>
<path d="M527.309 72V59.862H530.471V64.333H532.919L535.01 59.862H538.189L535.469 65.761L538.342 72H535.163L532.936 67.172H530.471V72H527.309ZM538.99 72V69.161H539.313C540.384 69.161 540.86 68.685 540.86 67.053V63.16H548.867V72H545.909V65.574H543.563V67.172C543.563 70.742 542.169 72 539.313 72H538.99ZM560.035 62.939C562.772 62.939 564.693 64.843 564.693 67.58C564.693 70.317 562.772 72.221 560.035 72.221C557.655 72.221 555.921 70.861 555.462 68.668H554.102V72H551.212V63.16H554.102V66.254H555.513C556.04 64.197 557.74 62.939 560.035 62.939ZM559.984 69.807C561.208 69.807 561.735 68.821 561.735 67.58C561.735 66.356 561.208 65.353 559.984 65.353C558.743 65.353 558.216 66.356 558.216 67.58C558.216 68.821 558.743 69.807 559.984 69.807ZM566.093 63.16H569.051V65.778C569.051 66.322 569.204 66.866 570.394 66.866C570.921 66.866 571.329 66.798 571.737 66.713V63.16H574.695V72H571.737V69.059C571.006 69.195 570.054 69.28 569.323 69.28C566.467 69.28 566.093 67.852 566.093 66.475V63.16ZM582.552 69.144H585.544C585.153 71.065 583.742 72.221 581.209 72.221C578.404 72.221 576.568 70.487 576.568 67.58C576.568 64.69 578.37 62.939 581.141 62.939C583.946 62.939 585.612 64.639 585.612 67.291V67.971H579.492C579.611 69.178 580.155 69.807 581.26 69.807C581.991 69.807 582.365 69.603 582.552 69.144ZM581.141 65.047C580.274 65.047 579.832 65.455 579.611 66.203H582.586C582.433 65.438 581.94 65.047 581.141 65.047ZM594.677 67.087V67.563C595.544 67.784 596.19 68.413 596.19 69.552C596.19 71.184 595.051 72 593.062 72H587.486V63.16H592.943C594.728 63.16 595.731 63.993 595.731 65.404C595.731 66.271 595.204 66.832 594.677 67.087ZM590.359 70.113H592.093C592.96 70.113 593.232 69.739 593.232 69.212C593.232 68.685 592.96 68.311 592.093 68.311H590.359V70.113ZM590.359 65.03V66.56H591.872C592.552 66.56 592.773 66.203 592.773 65.795C592.773 65.37 592.552 65.03 591.872 65.03H590.359ZM601.953 62.939C604.452 62.939 606.169 63.823 606.169 66.424V72H603.466V71.32H602.99C602.463 71.915 601.8 72.221 600.661 72.221C598.706 72.221 597.567 70.81 597.567 69.246C597.567 67.869 598.604 66.305 601.29 66.305H603.33V66.152C603.33 65.319 602.871 65.03 602.123 65.03C601.375 65.03 601.018 65.319 600.95 65.795H598.026C598.077 64.078 599.692 62.939 601.953 62.939ZM603.33 68.515V67.988H601.902C601.086 67.988 600.525 68.345 600.525 69.008C600.525 69.688 600.984 70.045 601.783 70.045C602.752 70.045 603.33 69.382 603.33 68.515ZM616.445 63.16V72H613.487V69.365H611.889L610.886 72H608.013L609.271 68.736C608.421 68.209 607.996 67.393 607.996 66.288C607.996 64.333 609.373 63.16 611.889 63.16H616.445ZM610.886 66.356C610.886 66.951 611.141 67.291 612.11 67.291H613.487V65.472H612.11C611.141 65.472 610.886 65.829 610.886 66.356ZM526.51 84.574V82.16H535.078V84.574H532.273V91H529.315V84.574H526.51ZM541.019 81.939C543.858 81.939 545.728 83.724 545.728 86.58C545.728 89.436 543.858 91.221 541.019 91.221C538.197 91.221 536.293 89.436 536.293 86.58C536.293 83.724 538.197 81.939 541.019 81.939ZM541.019 88.807C542.243 88.807 542.77 87.821 542.77 86.58C542.77 85.356 542.243 84.353 541.019 84.353C539.778 84.353 539.251 85.356 539.251 86.58C539.251 87.821 539.778 88.807 541.019 88.807ZM547.117 82.16H550.075V84.778C550.075 85.322 550.228 85.866 551.418 85.866C551.945 85.866 552.353 85.798 552.761 85.713V82.16H555.719V91H552.761V88.059C552.03 88.195 551.078 88.28 550.347 88.28C547.491 88.28 547.117 86.852 547.117 85.475V82.16ZM564.223 91L562.54 87.651H561.027V91H558.069V82.16H561.027V85.237H562.574L564.155 82.16H567.147L564.971 86.427L567.283 91H564.223ZM572.8 81.939C575.299 81.939 577.016 82.823 577.016 85.424V91H574.313V90.32H573.837C573.31 90.915 572.647 91.221 571.508 91.221C569.553 91.221 568.414 89.81 568.414 88.246C568.414 86.869 569.451 85.305 572.137 85.305H574.177V85.152C574.177 84.319 573.718 84.03 572.97 84.03C572.222 84.03 571.865 84.319 571.797 84.795H568.873C568.924 83.078 570.539 81.939 572.8 81.939ZM574.177 87.515V86.988H572.749C571.933 86.988 571.372 87.345 571.372 88.008C571.372 88.688 571.831 89.045 572.63 89.045C573.599 89.045 574.177 88.382 574.177 87.515ZM584.001 79.1H592.076V82.092L590.172 83.299V83.775C591.549 84.013 592.773 85.067 592.773 87.073C592.773 89.589 590.818 91.221 588.013 91.221C585.157 91.221 583.321 89.487 583.27 87.209H586.313C586.449 88.11 587.078 88.62 588.03 88.62C589.118 88.62 589.73 87.94 589.73 87.073C589.73 86.121 589.152 85.441 588.013 85.441C587.52 85.441 587.214 85.492 586.891 85.577V83.299L588.795 82.092V81.616H584.001V79.1Z" fill="black"/>
<path d="M90 47H89V49H90V47ZM276 52.4402C276 52.9925 276.676 53.383 277.155 53.1068L284.845 48.6667C285.324 48.3905 285.324 47.6095 284.845 47.3333L277.155 42.8932C276.676 42.617 276 43.0075 276 43.5598V52.4402ZM90 49H277V47H90V49Z" fill="black"/>
<path d="M306 47H305V49H306V47ZM492 52.4402C492 52.9925 492.676 53.383 493.155 53.1068L500.845 48.6667C501.324 48.3905 501.324 47.6095 500.845 47.3333L493.155 42.8932C492.676 42.617 492 43.0075 492 43.5598V52.4402ZM306 49H493V47H306V49Z" fill="black"/>
<path fill-rule="evenodd" clip-rule="evenodd" d="M40.9058 29.9513C40.7272 29.1521 40.0137 28.5547 39.1606 28.5547C38.5798 28.5547 38.0636 28.8316 37.737 29.2606C37.237 28.8251 36.5834 28.5614 35.8682 28.5614C34.5173 28.5614 33.3862 29.5024 33.0945 30.7647C32.9212 30.7087 32.7362 30.6784 32.5442 30.6784C31.5566 30.6784 30.756 31.479 30.756 32.4666C30.756 32.6561 30.7855 32.8387 30.8401 33.0102C29.579 33.3027 28.6392 34.4332 28.6392 35.7833C28.6392 36.583 28.969 37.3057 29.5 37.8228C29.0661 38.3225 28.8034 38.9748 28.8034 39.6885C28.8034 41.0017 29.6926 42.1072 30.9016 42.4358C30.7866 42.672 30.722 42.9374 30.722 43.2178C30.722 44.2054 31.5226 45.006 32.5102 45.006C32.8013 45.006 33.0761 44.9364 33.319 44.813C33.4126 45.7127 34.1732 46.4141 35.0975 46.4141C35.3106 46.4141 35.515 46.3768 35.7045 46.3084C35.514 47.2313 34.88 48.0299 33.97 48.4069L32.1334 49.168C30.5487 49.8247 29.3765 51.2034 28.9833 52.8731L27.4754 59.2758C27.0473 61.0934 26.8057 62.1195 26.7954 63.1518C26.7863 64.0668 26.9125 64.9782 27.1699 65.8563C27.4603 66.847 27.9717 67.7688 28.8777 69.4017L31.4529 74.0437L27.024 90.7129H50.7144L46.6978 73.1183L48.6396 69.2461C49.4182 67.6934 49.8578 66.8169 50.1038 65.8851C50.3219 65.0588 50.4249 64.2065 50.4099 63.3521C50.393 62.3885 50.1748 61.4325 49.7884 59.739L47.8461 51.2249L47.7926 51.0723C47.4923 50.0876 46.747 49.2866 45.7796 48.9138C44.5983 48.4587 43.6808 47.5384 43.2123 46.4137C44.1902 46.4025 44.9796 45.6063 44.9796 44.6256C44.9796 44.4202 44.945 44.2229 44.8812 44.0392C45.8377 44.0039 46.6022 43.2174 46.6022 42.2523C46.6022 41.7561 46.4001 41.3071 46.0738 40.9831C47.0918 40.7347 47.8473 39.8166 47.8473 38.7221C47.8473 37.7651 47.2697 36.943 46.4441 36.5854C46.9222 36.2645 47.2368 35.7188 47.2368 35.0997C47.2368 34.1121 46.4362 33.3115 45.4486 33.3115C45.4074 33.3115 45.3666 33.3129 45.3261 33.3157C45.4914 32.955 45.5836 32.5537 45.5836 32.131C45.5836 30.5588 44.3091 29.2843 42.7369 29.2843C42.0395 29.2843 41.4008 29.5351 40.9058 29.9513ZM36.8857 44.6259C36.8857 44.6767 36.8836 44.7271 36.8795 44.7768C37.339 44.9571 37.8357 45.0544 38.3485 45.0544H39.3648C41.5854 45.0544 43.3856 43.2542 43.3856 41.0336V39.6515C43.2614 39.3668 43.1926 39.0525 43.1926 38.7221C43.1926 38.4694 43.2329 38.2261 43.3073 37.9983C43.1283 38.0585 42.9367 38.0911 42.7375 38.0911C41.8979 38.0911 41.1934 37.5124 41.0011 36.7322C40.5129 37.1258 39.8919 37.3614 39.2159 37.3614C38.6845 37.3614 38.187 37.2158 37.7614 36.9623C37.568 37.4067 37.1994 37.7573 36.7427 37.9268C36.8351 38.1426 36.8862 38.3803 36.8862 38.63C36.8862 39.2829 36.5363 39.8542 36.0136 40.1663C36.5363 40.4784 36.8864 41.0497 36.8864 41.7027C36.8864 42.3067 36.5869 42.8408 36.1284 43.1645C36.5866 43.4883 36.8857 44.0222 36.8857 44.6259ZM38.3485 46.4829C37.9386 46.4829 37.5363 46.4371 37.1474 46.3493C36.9791 47.4989 36.3527 48.5409 35.4075 49.228L42.894 53.272L44.436 49.8511C42.9944 49.0217 41.9574 47.6227 41.588 46.0103C40.909 46.314 40.1566 46.4829 39.3648 46.4829H38.3485ZM33.8277 64.3608H44.1147C44.0985 64.5187 44.0817 64.7039 44.0601 64.9429L43.9959 65.6518C43.9555 66.0991 43.9326 66.3516 43.9236 66.605L43.9217 66.6613H34.281L33.8277 64.3608ZM32.6301 60.7976L28.878 59.552C28.4288 61.4601 28.2323 62.3179 28.2239 63.166C28.2162 63.9403 28.323 64.7114 28.5408 65.4545C28.7812 66.2746 29.2081 67.0524 30.1744 68.7943L31.9604 72.0136L33.0336 67.7201L32.3359 64.1796L32.6301 60.7976ZM48.2336 59.3465C48.2027 59.3728 48.1736 59.3981 48.1449 59.4234C46.7544 60.6534 45.8444 62.3359 45.576 64.1728C45.5455 64.3815 45.5253 64.6019 45.4806 65.096L45.4208 65.7575C45.3777 66.2339 45.3587 66.4461 45.3512 66.656C45.3291 67.2761 45.3805 67.8968 45.5044 68.5048C45.5464 68.7106 45.6 68.9168 45.7209 69.3796L46.1504 71.0231L47.3218 68.6869C48.1522 67.031 48.5189 66.292 48.7225 65.5205C48.9071 64.8213 48.9942 64.1001 48.9815 63.3771C48.9675 62.5793 48.7875 61.7742 48.3754 59.9682L48.2336 59.3465Z" fill="black"/>
<path d="M59 47.9453L74 47.9805" stroke="black" stroke-width="2" stroke-linecap="square" stroke-linejoin="bevel"/>
<circle cx="298" cy="158" r="8" fill="black"/>
<path d="M318.687 177.869H321.934C321.611 180.436 319.69 182.221 316.698 182.221C312.958 182.221 310.782 179.705 310.782 175.931C310.782 172.157 312.958 169.641 316.698 169.641C319.571 169.641 321.424 171.307 321.832 173.619H318.551C318.347 172.82 317.65 172.429 316.698 172.429C314.93 172.429 314.012 173.874 314.012 175.931C314.012 177.971 314.93 179.433 316.698 179.433C317.786 179.433 318.534 178.889 318.687 177.869ZM328.156 172.939C330.995 172.939 332.865 174.724 332.865 177.58C332.865 180.436 330.995 182.221 328.156 182.221C325.334 182.221 323.43 180.436 323.43 177.58C323.43 174.724 325.334 172.939 328.156 172.939ZM328.156 179.807C329.38 179.807 329.907 178.821 329.907 177.58C329.907 176.356 329.38 175.353 328.156 175.353C326.915 175.353 326.388 176.356 326.388 177.58C326.388 178.821 326.915 179.807 328.156 179.807ZM341.922 177.087V177.563C342.789 177.784 343.435 178.413 343.435 179.552C343.435 181.184 342.296 182 340.307 182H334.731V173.16H340.188C341.973 173.16 342.976 173.993 342.976 175.404C342.976 176.271 342.449 176.832 341.922 177.087ZM337.604 180.113H339.338C340.205 180.113 340.477 179.739 340.477 179.212C340.477 178.685 340.205 178.311 339.338 178.311H337.604V180.113ZM337.604 175.03V176.56H339.117C339.797 176.56 340.018 176.203 340.018 175.795C340.018 175.37 339.797 175.03 339.117 175.03H337.604ZM353.022 177.24L352.002 179.535H349.758L348.738 177.24H348.262V182H345.389V173.16H349.078L350.642 176.696H351.118L352.682 173.16H356.371V182H353.498V177.24H353.022ZM364.228 179.144H367.22C366.829 181.065 365.418 182.221 362.885 182.221C360.08 182.221 358.244 180.487 358.244 177.58C358.244 174.69 360.046 172.939 362.817 172.939C365.622 172.939 367.288 174.639 367.288 177.291V177.971H361.168C361.287 179.178 361.831 179.807 362.936 179.807C363.667 179.807 364.041 179.603 364.228 179.144ZM362.817 175.047C361.95 175.047 361.508 175.455 361.287 176.203H364.262C364.109 175.438 363.616 175.047 362.817 175.047ZM374.568 178.838H377.475C377.288 180.844 375.571 182.221 373.259 182.221C370.522 182.221 368.686 180.487 368.686 177.58C368.686 174.707 370.522 172.939 373.259 172.939C375.554 172.939 377.203 174.214 377.39 176.152H374.483C374.33 175.625 373.922 175.353 373.276 175.353C372.069 175.353 371.644 176.373 371.644 177.58C371.644 178.804 372.086 179.807 373.276 179.807C374.007 179.807 374.483 179.45 374.568 178.838ZM378.709 175.574V173.16H387.277V175.574H384.472V182H381.514V175.574H378.709ZM397.842 182H394.884V178.668H391.926V182H388.968V173.16H391.926V176.254H394.884V173.16H397.842V182ZM403.999 172.939C406.498 172.939 408.215 173.823 408.215 176.424V182H405.512V181.32H405.036C404.509 181.915 403.846 182.221 402.707 182.221C400.752 182.221 399.613 180.81 399.613 179.246C399.613 177.869 400.65 176.305 403.336 176.305H405.376V176.152C405.376 175.319 404.917 175.03 404.169 175.03C403.421 175.03 403.064 175.319 402.996 175.795H400.072C400.123 174.078 401.738 172.939 403.999 172.939ZM405.376 178.515V177.988H403.948C403.132 177.988 402.571 178.345 402.571 179.008C402.571 179.688 403.03 180.045 403.829 180.045C404.798 180.045 405.376 179.382 405.376 178.515ZM418.491 173.16V182H415.533V179.365H413.935L412.932 182H410.059L411.317 178.736C410.467 178.209 410.042 177.393 410.042 176.288C410.042 174.333 411.419 173.16 413.935 173.16H418.491ZM412.932 176.356C412.932 176.951 413.187 177.291 414.156 177.291H415.533V175.472H414.156C413.187 175.472 412.932 175.829 412.932 176.356ZM310.51 194.574V192.16H319.078V194.574H316.273V201H313.315V194.574H310.51ZM325.019 191.939C327.858 191.939 329.728 193.724 329.728 196.58C329.728 199.436 327.858 201.221 325.019 201.221C322.197 201.221 320.293 199.436 320.293 196.58C320.293 193.724 322.197 191.939 325.019 191.939ZM325.019 198.807C326.243 198.807 326.77 197.821 326.77 196.58C326.77 195.356 326.243 194.353 325.019 194.353C323.778 194.353 323.251 195.356 323.251 196.58C323.251 197.821 323.778 198.807 325.019 198.807ZM331.117 192.16H334.075V194.778C334.075 195.322 334.228 195.866 335.418 195.866C335.945 195.866 336.353 195.798 336.761 195.713V192.16H339.719V201H336.761V198.059C336.03 198.195 335.078 198.28 334.347 198.28C331.491 198.28 331.117 196.852 331.117 195.475V192.16ZM348.223 201L346.54 197.651H345.027V201H342.069V192.16H345.027V195.237H346.574L348.155 192.16H351.147L348.971 196.427L351.283 201H348.223ZM356.8 191.939C359.299 191.939 361.016 192.823 361.016 195.424V201H358.313V200.32H357.837C357.31 200.915 356.647 201.221 355.508 201.221C353.553 201.221 352.414 199.81 352.414 198.246C352.414 196.869 353.451 195.305 356.137 195.305H358.177V195.152C358.177 194.319 357.718 194.03 356.97 194.03C356.222 194.03 355.865 194.319 355.797 194.795H352.873C352.924 193.078 354.539 191.939 356.8 191.939ZM358.177 197.515V196.988H356.749C355.933 196.988 355.372 197.345 355.372 198.008C355.372 198.688 355.831 199.045 356.63 199.045C357.599 199.045 358.177 198.382 358.177 197.515ZM376.773 198.382V201H367.627V197.906L371.469 195.288C372.489 194.591 373.441 193.894 373.441 192.857C373.441 191.956 372.897 191.48 372.098 191.48C371.299 191.48 370.704 191.905 370.636 192.874H367.61C367.729 190.307 369.361 188.862 372.2 188.862C374.733 188.862 376.484 190.29 376.484 192.823C376.484 195.22 374.104 196.767 372.336 197.906V198.382H376.773ZM381.635 201H378.507V198.042H381.635V201ZM392.71 198.382V201H383.564V197.906L387.406 195.288C388.426 194.591 389.378 193.894 389.378 192.857C389.378 191.956 388.834 191.48 388.035 191.48C387.236 191.48 386.641 191.905 386.573 192.874H383.547C383.666 190.307 385.298 188.862 388.137 188.862C390.67 188.862 392.421 190.29 392.421 192.823C392.421 195.22 390.041 196.767 388.273 197.906V198.382H392.71Z" fill="black"/>
<path fill-rule="evenodd" clip-rule="evenodd" d="M36.1218 152.585C36.1928 152.807 36.2764 153.022 36.3716 153.23C35.6932 155.442 34.2612 157.355 32.3144 158.629L31.3143 159.284C30.6495 159.719 30.2749 159.964 29.9408 160.229C27.9565 161.806 26.7029 164.125 26.4707 166.649C26.4316 167.074 26.4316 167.521 26.4316 168.316L26.4321 178.01C26.4322 179.279 26.4322 179.995 26.5406 180.698C26.6368 181.322 26.7964 181.935 27.017 182.527C27.2655 183.194 27.615 183.819 28.2339 184.926L32.2624 192.133V200.715H50.0678V168.391C50.0678 165.086 48.8031 161.906 46.5331 159.503C45.5861 158.501 45.0584 157.174 45.0584 155.795V155.423C46.4474 154.374 47.345 152.709 47.345 150.834V141.529C47.345 141.065 47.345 140.833 47.2917 140.643C47.1569 140.164 46.7824 139.79 46.3033 139.655C46.1136 139.602 45.8816 139.602 45.4177 139.602L40.0306 139.602C36.6191 139.602 33.8535 142.367 33.8537 145.779L33.8537 146.233C33.8537 147.582 34.2579 148.901 35.0142 150.018C35.3749 150.551 35.6576 151.133 35.8537 151.746L36.1218 152.585ZM45.9165 145.084H40.1435V149.296L37.1088 151.002C37.146 151.105 37.1812 151.207 37.2144 151.311L37.4825 152.15C37.5687 152.419 37.6797 152.676 37.8124 152.917L37.9288 152.945L37.899 153.067C38.6684 154.341 40.0606 155.153 41.5968 155.153C43.9825 155.153 45.9165 153.219 45.9165 150.834V145.084ZM35.9602 157.14C36.5211 156.393 36.9895 155.577 37.3528 154.711C38.4183 155.876 39.945 156.582 41.5968 156.582C42.3173 156.582 43.0068 156.449 43.6423 156.207C43.7236 157.551 44.2002 158.838 45.0081 159.909L44.0087 161.769L36.1187 157.215C36.0663 157.185 36.0134 157.16 35.9602 157.14ZM34.7179 158.538C34.221 159.012 33.6791 159.443 33.0968 159.824L32.1323 160.456C31.4225 160.92 31.106 161.128 30.8295 161.348C29.1505 162.682 28.0897 164.644 27.8932 166.78C27.8609 167.131 27.8602 167.51 27.8602 168.358L27.8607 177.944C27.8608 179.296 27.8627 179.898 27.9525 180.481C28.0339 181.009 28.169 181.527 28.3556 182.028C28.5614 182.58 28.8535 183.106 29.513 184.286L32.5516 189.723L37.2409 185.685L34.2871 180.453V169.728L35.7157 170.526V180.077L38.6978 185.36H44.9807V169.728C44.9807 169.174 44.9806 168.915 44.9709 168.66C44.9177 167.263 44.6491 165.884 44.1761 164.572H37.481C37.0525 164.572 36.6716 164.299 36.534 163.894L34.7179 158.538ZM45.1428 163.144C45.1071 163.063 45.0694 162.98 45.0268 162.888C45.0377 162.87 45.0481 162.852 45.058 162.834L46.0082 161.066C46.54 161.71 46.9971 162.408 47.3739 163.144H45.1428ZM45.6854 164.572C46.1057 165.876 46.3462 167.233 46.3984 168.605C46.4093 168.891 46.4093 169.178 46.4093 169.711V185.36H48.6392V168.391C48.6392 167.079 48.4151 165.789 47.9875 164.572H45.6854ZM36.3901 159.021L43.5337 163.144H37.7882L36.3901 159.021Z" fill="black"/>
<path d="M298 150V56" stroke="black" stroke-opacity="0.8" stroke-width="2" stroke-linecap="square" stroke-linejoin="bevel" stroke-dasharray="1 10"/>
</g>
<defs>
<clipPath id="clip0_1179_12579">
<rect x="24" y="24" width="698" height="212" rx="4" fill="white"/>
</clipPath>
</defs>
</svg>
